<svg width="191px" height="20px" viewBox="0 0 191 20" version="1.1" xmlns="http://www.w3.org/2000/svg" xmlns:xlink="http://www.w3.org/1999/xlink">
    <!-- Generator: Sketch 47.1 (45422) - http://www.bohemiancoding.com/sketch -->
    <desc>Created with Sketch.</desc>
    <defs></defs>
    <g id="Page-1" stroke="none" stroke-width="1" fill="none" fill-rule="evenodd">
        <g id="Global_assets" transform="translate(-35.000000, -79.000000)" fill="#000000">
            <path d="M40.2558594,98.6679688 L35.6074219,98.6679688 L35.6074219,80.7578125 L40.2558594,80.7578125 L40.2558594,81.2070312 L37.9902344,81.2070312 C37.5996074,81.2070312 37.3294278,81.2574865 37.1796875,81.3583984 C37.0299472,81.4593104 36.9371747,81.6025381 36.9013672,81.7880859 C36.8655597,81.9736337 36.8476562,82.4049445 36.8476562,83.0820312 L36.8476562,96.3339844 C36.8476562,96.9915397 36.8639321,97.4163402 36.8964844,97.6083984 C36.9290366,97.8004567 37.018554,97.9501948 37.1650391,98.0576172 C37.3115242,98.1650396 37.5865865,98.21875 37.9902344,98.21875 L40.2558594,98.21875 L40.2558594,98.6679688 Z M59.4160156,94 L55.8515625,94 C55.2200489,93.5572895 54.2532617,92.3984469 52.9511719,90.5234375 C52.5345031,89.9244762 52.1015647,89.3499376 51.6523438,88.7998047 C51.2031228,88.2496717 50.8938811,87.9143886 50.7246094,87.7939453 C50.5553377,87.673502 50.2916685,87.6132812 49.9335938,87.6132812 L49.40625,87.6132812 L49.40625,90.5527344 C49.40625,91.5944062 49.4306638,92.2763656 49.4794922,92.5986328 C49.5283206,92.9209 49.6585276,93.1601555 49.8701172,93.3164062 C50.0817068,93.472657 50.4869762,93.5507812 51.0859375,93.5507812 L51.7207031,93.5507812 L51.7207031,94 L45.3828125,94 L45.3828125,93.5507812 L45.8125,93.5507812 C46.3789091,93.5507812 46.7711578,93.4791674 46.9892578,93.3359375 C47.2073579,93.1927076 47.3457028,92.9697281 47.4042969,92.6669922 C47.4628909,92.3642563 47.4921875,91.6595107 47.4921875,90.5527344 L47.4921875,84.0585938 C47.4921875,83.003901 47.4628909,82.3235692 47.4042969,82.0175781 C47.3457028,81.711587 47.2154958,81.5000006 47.0136719,81.3828125 C46.8118479,81.2656244 46.3756544,81.2070312 45.7050781,81.2070312 L45.4804688,81.2070312 L45.4804688,80.7578125 L47.375,80.6601562 C48.6380271,80.6015622 49.6406213,80.5722656 50.3828125,80.5722656 C51.6458396,80.5722656 52.6728476,80.689452 53.4638672,80.9238281 C54.2548868,81.1582043 54.8945288,81.542315 55.3828125,82.0761719 C55.8710962,82.6100287 56.1152344,83.2480432 56.1152344,83.9902344 C56.1152344,84.8561241 55.7962271,85.595049 55.1582031,86.2070312 C54.5201791,86.8190135 53.5826885,87.199869 52.3457031,87.3496094 C52.8990913,87.6165378 53.7910095,88.5800698 55.0214844,90.2402344 C56.0240936,91.5878974 56.8118461,92.47005 57.3847656,92.8867188 C57.9576852,93.3033875 58.6347617,93.5247395 59.4160156,93.5507812 L59.4160156,94 Z M49.40625,87.1640625 C49.8945337,87.1510416 50.3990859,87.1315105 50.9199219,87.1054688 C51.4407578,87.079427 51.8932272,87.0078131 52.2773438,86.890625 C52.6614603,86.7734369 52.9723295,86.6025402 53.2099609,86.3779297 C53.4475923,86.1533192 53.6347649,85.8587258 53.7714844,85.4941406 C53.9082038,85.1295555 53.9765625,84.6803412 53.9765625,84.1464844 C53.9765625,83.2154901 53.7438174,82.4700549 53.2783203,81.9101562 C52.8128232,81.3502576 51.7988359,81.0703125 50.2363281,81.0703125 C49.9954415,81.0703125 49.7187516,81.0833332 49.40625,81.109375 L49.40625,87.1640625 Z M66.5253906,88.7070312 L60.9492188,88.7070312 C60.923177,89.0911478 60.9101562,89.3776032 60.9101562,89.5664062 C60.9101562,90.9726633 61.1298806,92.0289678 61.5693359,92.7353516 C62.0087913,93.4417353 62.6647092,93.7949219 63.5371094,93.7949219 C64.7220111,93.7949219 65.5618465,93.2643282 66.0566406,92.203125 L66.5253906,92.203125 C66.3170563,92.8671908 65.9036489,93.3863914 65.2851562,93.7607422 C64.6666636,94.135093 63.9928422,94.3222656 63.2636719,94.3222656 C62.5865852,94.3222656 61.9469431,94.1513689 61.3447266,93.8095703 C60.74251,93.4677717 60.2493509,92.9843781 59.8652344,92.359375 C59.4811179,91.7343719 59.2890625,90.9759159 59.2890625,90.0839844 C59.2890625,88.8209572 59.6601525,87.771163 60.4023438,86.9345703 C61.144535,86.0979776 62.0722601,85.6796875 63.1855469,85.6796875 C64.2337292,85.6796875 65.044268,85.9986947 65.6171875,86.6367188 C66.190107,87.2747428 66.4928384,87.96484 66.5253906,88.7070312 Z M64.8164062,88.3164062 C64.8359376,88.1666659 64.8457031,88.0332037 64.8457031,87.9160156 C64.8457031,87.3430961 64.6780616,86.8987646 64.3427734,86.5830078 C64.0074853,86.267251 63.5957056,86.109375 63.1074219,86.109375 C61.9225201,86.109375 61.216147,86.8450447 60.9882812,88.3164062 L64.8164062,88.3164062 Z M74.9335938,92.046875 L75.3632812,92.046875 C74.9205707,93.5638097 73.8138109,94.3222656 72.0429688,94.3222656 C70.9036401,94.3222656 69.9449909,93.9348997 69.1669922,93.1601562 C68.3889935,92.3854128 68,91.3600324 68,90.0839844 C68,88.7753841 68.4199177,87.7141968 69.2597656,86.9003906 C70.0996136,86.0865845 71.0924422,85.6796875 72.2382812,85.6796875 C72.9283889,85.6796875 73.5631481,85.8310532 74.1425781,86.1337891 C74.7220081,86.436525 75.0117188,86.8059874 75.0117188,87.2421875 C75.0117188,87.4049487 74.9580083,87.557942 74.8505859,87.7011719 C74.7431635,87.8444018 74.5885427,87.9160156 74.3867188,87.9160156 C73.9570291,87.9160156 73.6933599,87.6653671 73.5957031,87.1640625 C73.5175777,86.7864564 73.3971362,86.5227872 73.234375,86.3730469 C73.0651033,86.2233065 72.7363306,86.1484375 72.2480469,86.1484375 C71.3756467,86.1484375 70.7197288,86.4511688 70.2802734,87.0566406 C69.8408181,87.6621124 69.6210938,88.5735616 69.6210938,89.7910156 C69.6210938,91.0475323 69.857094,92.0305954 70.3291016,92.7402344 C70.8011091,93.4498733 71.5156202,93.8046875 72.4726562,93.8046875 C73.7617252,93.8046875 74.5820295,93.2187559 74.9335938,92.046875 Z M76.5742188,89.9863281 C76.5742188,88.7623637 76.9843709,87.7386109 77.8046875,86.9150391 C78.6250041,86.0914672 79.6341086,85.6796875 80.8320312,85.6796875 C82.0364644,85.6796875 83.048824,86.0930948 83.8691406,86.9199219 C84.6894572,87.7467489 85.0996094,88.7688741 85.0996094,89.9863281 C85.0996094,91.3339911 84.6829469,92.3935508 83.8496094,93.1650391 C83.0162719,93.9365273 82.0104226,94.3222656 80.8320312,94.3222656 C79.6536399,94.3222656 78.6494182,93.9300169 77.8193359,93.1455078 C76.9892537,92.3609987 76.5742188,91.3079493 76.5742188,89.9863281 Z M78.1953125,90.0351562 C78.1953125,91.4544342 78.42643,92.4488904 78.8886719,93.0185547 C79.3509138,93.588219 79.9986938,93.8730469 80.8320312,93.8730469 C81.6849001,93.8730469 82.3375628,93.588219 82.7900391,93.0185547 C83.2425153,92.4488904 83.46875,91.4544342 83.46875,90.0351562 C83.46875,88.6288992 83.2441429,87.6263051 82.7949219,87.0273438 C82.3457009,86.4283824 81.6914105,86.1289062 80.8320312,86.1289062 C79.9791624,86.1289062 79.3264997,86.4267548 78.8740234,87.0224609 C78.4215472,87.618167 78.1953125,88.6223888 78.1953125,90.0351562 Z M89.1621094,87.7207031 C89.3834646,87.1412731 89.7431616,86.656252 90.2412109,86.265625 C90.7392603,85.874998 91.2259091,85.6796875 91.7011719,85.6796875 C92.1308615,85.6796875 92.4693998,85.8131497 92.7167969,86.0800781 C92.9641939,86.3470065 93.0878906,86.6204413 93.0878906,86.9003906 C93.0878906,87.0891937 93.0244147,87.2519524 92.8974609,87.3886719 C92.7705072,87.5253913 92.6158863,87.59375 92.4335938,87.59375 C92.1080713,87.59375 91.8606779,87.352867 91.6914062,86.8710938 C91.5742182,86.5455713 91.3984387,86.3828125 91.1640625,86.3828125 C90.8841132,86.3828125 90.5488301,86.5732403 90.1582031,86.9541016 C89.7675762,87.3349628 89.5169276,87.7304667 89.40625,88.140625 C89.2955724,88.5507833 89.2402344,89.1139287 89.2402344,89.8300781 L89.2402344,91.2558594 C89.2402344,92.1087282 89.2516275,92.6458322 89.2744141,92.8671875 C89.2972006,93.0885428 89.3899731,93.2578119 89.5527344,93.375 C89.7154956,93.4921881 90.0052063,93.5507812 90.421875,93.5507812 L90.6953125,93.5507812 L90.6953125,94 L86.4472656,94 L86.4472656,93.5507812 L86.6523438,93.5507812 C87.0429707,93.5507812 87.3212882,93.4970708 87.4873047,93.3896484 C87.6533211,93.282226 87.752604,93.1308604 87.7851562,92.9355469 C87.8177085,92.7402334 87.8339844,92.1803432 87.8339844,91.2558594 L87.8339844,89 C87.8339844,88.1406207 87.8225913,87.6018891 87.7998047,87.3837891 C87.7770181,87.165689 87.6842456,86.9964199 87.5214844,86.8759766 C87.3587231,86.7555333 87.0690125,86.6953125 86.6523438,86.6953125 L86.4472656,86.6953125 L86.4472656,86.2558594 C87.0592479,86.1842444 87.8600211,85.9921891 88.8496094,85.6796875 C89.0384124,86.194013 89.142578,86.8743447 89.1621094,87.7207031 Z M100.441406,86.8515625 L100.441406,83.7265625 C100.441406,82.8736937 100.430013,82.3365896 100.407227,82.1152344 C100.38444,81.8938791 100.291667,81.72461 100.128906,81.6074219 C99.966145,81.4902338 99.6764344,81.4316406 99.2597656,81.4316406 L99.0546875,81.4316406 L99.0546875,80.9824219 C99.8424519,80.9628905 100.705073,80.8261731 101.642578,80.5722656 L101.847656,80.5722656 L101.847656,91.3242188 C101.847656,92.255213 101.863932,92.8216136 101.896484,93.0234375 C101.929037,93.2252614 102.031575,93.3749995 102.204102,93.4726562 C102.376628,93.570313 102.697263,93.6191406 103.166016,93.6191406 L103.166016,94.0683594 C102.222,94.0878907 101.382165,94.1725253 100.646484,94.3222656 C100.568359,94.0162745 100.529297,93.5345085 100.529297,92.8769531 C100.047524,93.3587264 99.5511093,93.7200509 99.0400391,93.9609375 C98.5289688,94.2018241 98.0000027,94.3222656 97.453125,94.3222656 C96.4179636,94.3222656 95.5244178,93.9056031 94.7724609,93.0722656 C94.0205041,92.2389281 93.6445312,91.2298236 93.6445312,90.0449219 C93.6445312,88.742832 94.028642,87.6897827 94.796875,86.8857422 C95.565108,86.0817017 96.4798124,85.6796875 97.5410156,85.6796875 C98.0813829,85.6796875 98.5924455,85.7773428 99.0742188,85.9726562 C99.555992,86.1679697 100.011717,86.4609355 100.441406,86.8515625 Z M100.441406,87.4179688 C100.011717,87.0468731 99.5804058,86.7685556 99.1474609,86.5830078 C98.7145161,86.39746 98.2799501,86.3046875 97.84375,86.3046875 C97.1080692,86.3046875 96.4944686,86.5878878 96.0029297,87.1542969 C95.5113908,87.720706 95.265625,88.6451759 95.265625,89.9277344 C95.265625,91.2298242 95.5179011,92.1901011 96.0224609,92.8085938 C96.5270208,93.4270864 97.1503869,93.7363281 97.8925781,93.7363281 C98.3873723,93.7363281 98.8463521,93.6191418 99.2695312,93.3847656 C99.6927104,93.1503895 100.083332,92.7988305 100.441406,92.3300781 L100.441406,87.4179688 Z M104.689453,81.5976562 C104.689453,81.3177069 104.788736,81.0768239 104.987305,80.875 C105.185873,80.6731761 105.425129,80.5722656 105.705078,80.5722656 C105.985027,80.5722656 106.222655,80.6731761 106.417969,80.875 C106.613282,81.0768239 106.710938,81.3177069 106.710938,81.5976562 C106.710938,81.884116 106.613282,82.1282542 106.417969,82.3300781 C106.222655,82.5319021 105.985027,82.6328125 105.705078,82.6328125 C105.425129,82.6328125 105.185873,82.5319021 104.987305,82.3300781 C104.788736,82.1282542 104.689453,81.884116 104.689453,81.5976562 Z M106.574219,85.6796875 L106.574219,91.2558594 C106.574219,92.1087282 106.587239,92.6458322 106.613281,92.8671875 C106.639323,93.0885428 106.733723,93.2578119 106.896484,93.375 C107.059246,93.4921881 107.348956,93.5507812 107.765625,93.5507812 L107.970703,93.5507812 L107.970703,94 L103.664062,94 L103.664062,93.5507812 L103.996094,93.5507812 C104.458336,93.5507812 104.759439,93.4840501 104.899414,93.3505859 C105.039389,93.2171217 105.120768,93.0576181 105.143555,92.8720703 C105.166341,92.6865225 105.177734,92.1477909 105.177734,91.2558594 L105.177734,88.8339844 C105.177734,87.8964797 105.13379,87.3235687 105.045898,87.1152344 C104.958007,86.9069 104.840821,86.776693 104.694336,86.7246094 C104.547851,86.6725258 104.29232,86.6464844 103.927734,86.6464844 L103.664062,86.6464844 L103.664062,86.1972656 C104.822922,86.0800775 105.721351,85.9075532 106.359375,85.6796875 L106.574219,85.6796875 Z M111.105469,85.6796875 L111.369141,85.6796875 C111.518881,86.0833354 111.603516,86.6334601 111.623047,87.3300781 C112.091799,86.7766899 112.583331,86.3632826 113.097656,86.0898438 C113.611982,85.8164049 114.149086,85.6796875 114.708984,85.6796875 C115.347008,85.6796875 115.869464,85.8131497 116.276367,86.0800781 C116.68327,86.3470065 116.945312,86.6741517 117.0625,87.0615234 C117.179688,87.4488952 117.238281,88.0136682 117.238281,88.7558594 L117.238281,91.2558594 C117.238281,92.1803432 117.254557,92.7434886 117.287109,92.9453125 C117.319662,93.1471364 117.4222,93.2985021 117.594727,93.3994141 C117.767253,93.500326 118.084633,93.5507812 118.546875,93.5507812 L118.546875,94 L114.455078,94 L114.455078,93.5507812 L114.640625,93.5507812 C115.109377,93.5507812 115.415364,93.4824226 115.558594,93.3457031 C115.701824,93.2089837 115.783203,93.0494801 115.802734,92.8671875 C115.822266,92.6848949 115.832031,92.1477909 115.832031,91.2558594 L115.832031,88.6777344 C115.832031,88.0462208 115.801107,87.595379 115.739258,87.3251953 C115.677409,87.0550117 115.511395,86.8157562 115.241211,86.6074219 C114.971027,86.3990875 114.627606,86.2949219 114.210938,86.2949219 C113.735675,86.2949219 113.281578,86.436522 112.848633,86.7197266 C112.415688,87.0029311 112.007163,87.4277315 111.623047,87.9941406 L111.623047,91.2558594 C111.623047,92.1803432 111.64095,92.7434886 111.676758,92.9453125 C111.712565,93.1471364 111.816731,93.2985021 111.989258,93.3994141 C112.161785,93.500326 112.48242,93.5507812 112.951172,93.5507812 L112.951172,94 L108.908203,94 L108.908203,93.5507812 C109.357424,93.5507812 109.669921,93.5052088 109.845703,93.4140625 C110.021485,93.3229162 110.130534,93.1845712 110.172852,92.9990234 C110.215169,92.8134756 110.236328,92.2324268 110.236328,91.2558594 L110.236328,88.8730469 C110.236328,87.9420526 110.218425,87.3772796 110.182617,87.1787109 C110.14681,86.9801422 110.042644,86.8304042 109.870117,86.7294922 C109.69759,86.6285802 109.376955,86.578125 108.908203,86.578125 L108.908203,86.1289062 C109.624353,86.0507809 110.356767,85.9010428 111.105469,85.6796875 Z M125.832031,86.7050781 C126.385419,86.080075 126.94531,85.7675781 127.511719,85.7675781 C127.82422,85.7675781 128.066731,85.8522127 128.239258,86.0214844 C128.411785,86.1907561 128.498047,86.3763011 128.498047,86.578125 C128.498047,87.0078146 128.302736,87.2226562 127.912109,87.2226562 C127.697265,87.2226562 127.51172,87.089194 127.355469,86.8222656 C127.212239,86.5748686 127.062501,86.4511719 126.90625,86.4511719 C126.658853,86.4511719 126.385418,86.620441 126.085938,86.9589844 C126.424481,87.4928412 126.59375,88.0592418 126.59375,88.6582031 C126.59375,89.439457 126.313805,90.1295543 125.753906,90.7285156 C125.194008,91.3339874 124.250007,91.659505 122.921875,91.7050781 C121.54166,91.7506513 120.851562,92.0305964 120.851562,92.5449219 C120.851562,92.7858085 121.007811,92.9550776 121.320312,93.0527344 C121.626304,93.1569016 122.270828,93.2350258 123.253906,93.2871094 C124.32813,93.339193 125.154945,93.4384758 125.734375,93.5849609 C126.313805,93.731446 126.77604,94.0260395 127.121094,94.46875 C127.466148,94.9114605 127.638672,95.438799 127.638672,96.0507812 C127.638672,96.9101605 127.287113,97.603513 126.583984,98.1308594 C125.880856,98.6582058 124.868496,98.921875 123.546875,98.921875 C122.335931,98.921875 121.365889,98.6875023 120.636719,98.21875 C119.907548,97.7499977 119.542969,97.1575557 119.542969,96.4414062 C119.542969,96.0442688 119.647134,95.7187513 119.855469,95.4648438 C120.063803,95.2109362 120.360024,95.0839844 120.744141,95.0839844 C120.848308,95.0839844 120.942708,95.1002603 121.027344,95.1328125 C120.623696,95.575523 120.421875,96.0442684 120.421875,96.5390625 C120.421875,97.111982 120.690427,97.5856101 121.227539,97.9599609 C121.764651,98.3343118 122.567052,98.5214844 123.634766,98.5214844 C124.585291,98.5214844 125.325844,98.3310566 125.856445,97.9501953 C126.387047,97.569334 126.652344,97.0826853 126.652344,96.4902344 C126.652344,95.8391895 126.414716,95.3802097 125.939453,95.1132812 C125.46419,94.8528633 124.617845,94.6966148 123.400391,94.6445312 C122.000644,94.5859372 121.09245,94.4134129 120.675781,94.1269531 C120.259113,93.8470038 120.050781,93.4856793 120.050781,93.0429688 C120.050781,92.1900999 120.646478,91.6529959 121.837891,91.4316406 C121.219398,91.0670555 120.753908,90.650393 120.441406,90.1816406 C120.128905,89.7128883 119.972656,89.188805 119.972656,88.609375 C119.972656,87.7955688 120.293291,87.103844 120.93457,86.5341797 C121.57585,85.9645154 122.335933,85.6796875 123.214844,85.6796875 C124.302089,85.6796875 125.174476,86.021481 125.832031,86.7050781 Z M121.4375,88.8339844 C121.4375,89.6738323 121.610024,90.2890605 121.955078,90.6796875 C122.300132,91.0703145 122.739581,91.265625 123.273438,91.265625 C123.768232,91.265625 124.193032,91.071942 124.547852,90.6845703 C124.902671,90.2971986 125.080078,89.6250048 125.080078,88.6679688 C125.080078,87.7044223 124.891278,87.0403664 124.513672,86.6757812 C124.136066,86.3111961 123.709638,86.1289062 123.234375,86.1289062 C122.635414,86.1289062 122.186199,86.3535134 121.886719,86.8027344 C121.587238,87.2519554 121.4375,87.9290319 121.4375,88.8339844 Z M129.162109,94.2539062 L129.162109,91.6269531 L129.542969,91.6269531 C129.985679,93.1438878 130.776687,93.9023438 131.916016,93.9023438 C132.41081,93.9023438 132.780272,93.7526057 133.024414,93.453125 C133.268556,93.1536443 133.390625,92.8248716 133.390625,92.4667969 C133.390625,92.0501281 133.260418,91.7083347 133,91.4414062 C132.733072,91.1744778 132.215499,90.8522154 131.447266,90.4746094 C130.63997,90.077472 130.060549,89.6868509 129.708984,89.3027344 C129.35742,88.9251283 129.181641,88.4596382 129.181641,87.90625 C129.181641,87.3789036 129.370441,86.875979 129.748047,86.3974609 C130.125653,85.9189429 130.656247,85.6796875 131.339844,85.6796875 C132.036462,85.6796875 132.612628,85.9628878 133.068359,86.5292969 C133.166016,86.4316401 133.292968,86.1940123 133.449219,85.8164062 L133.810547,85.8164062 L133.810547,88.2871094 L133.449219,88.2871094 C133.31901,87.6946585 133.066734,87.1852235 132.692383,86.7587891 C132.318032,86.3323546 131.876956,86.1191406 131.369141,86.1191406 C130.978514,86.1191406 130.662762,86.2395821 130.421875,86.4804688 C130.180988,86.7213554 130.060547,87.0013005 130.060547,87.3203125 C130.060547,87.6718768 130.194009,87.9746081 130.460938,88.2285156 C130.721355,88.4889336 131.219397,88.7851546 131.955078,89.1171875 C133.061854,89.6184921 133.738931,90.1067685 133.986328,90.5820312 C134.233725,91.0638045 134.357422,91.5260395 134.357422,91.96875 C134.357422,92.6653681 134.127932,93.2317687 133.668945,93.6679688 C133.209959,94.1041688 132.632165,94.3222656 131.935547,94.3222656 C131.199866,94.3222656 130.545576,94.0195343 129.972656,93.4140625 C129.796874,93.609376 129.653646,93.8893211 129.542969,94.2539062 L129.162109,94.2539062 Z M139.621094,98.6679688 L139.621094,98.21875 L141.886719,98.21875 C142.277346,98.21875 142.547525,98.1666672 142.697266,98.0625 C142.847006,97.9583328 142.939778,97.8134775 142.975586,97.6279297 C143.011393,97.4423819 143.029297,97.0110711 143.029297,96.3339844 L143.029297,83.0820312 C143.029297,82.4309863 143.013021,82.0094411 142.980469,81.8173828 C142.947917,81.6253246 142.858399,81.4755865 142.711914,81.3681641 C142.565429,81.2607417 142.290367,81.2070312 141.886719,81.2070312 L139.621094,81.2070312 L139.621094,80.7578125 L144.269531,80.7578125 L144.269531,98.6679688 L139.621094,98.6679688 Z M152.236484,86.96 L152.296484,86.48 L154.076484,86.48 C154.143151,86.1866652 154.259817,85.8200022 154.426484,85.38 C154.593152,84.9399978 154.796483,84.4700025 155.036484,83.97 C155.276486,83.4699975 155.546483,82.9700025 155.846484,82.47 C156.146486,81.9699975 156.463149,81.520002 156.796484,81.12 C157.129819,80.719998 157.469816,80.3933346 157.816484,80.14 C158.163153,79.8866654 158.503149,79.76 158.836484,79.76 C158.983152,79.76 159.106484,79.7966663 159.206484,79.87 C159.306485,79.9433337 159.386484,80.0366661 159.446484,80.15 C159.506485,80.2633339 159.546484,80.3833327 159.566484,80.51 C159.586484,80.6366673 159.596484,80.7599994 159.596484,80.88 C159.596484,81.0400008 159.543152,81.2333322 159.436484,81.46 C159.329817,81.6866678 159.203152,81.9199988 159.056484,82.16 C158.909817,82.4000012 158.756485,82.6266656 158.596484,82.84 C158.436484,83.0533344 158.303152,83.2133328 158.196484,83.32 L158.076484,83.3 C158.129818,82.9933318 158.189817,82.6900015 158.256484,82.39 C158.323151,82.0899985 158.356484,81.7866682 158.356484,81.48 C158.356484,81.3199992 158.323151,81.1533342 158.256484,80.98 C158.189817,80.8066658 158.069819,80.72 157.896484,80.72 C157.656483,80.72 157.443152,80.8433321 157.256484,81.09 C157.069817,81.3366679 156.899818,81.6499981 156.746484,82.03 C156.59315,82.4100019 156.459818,82.833331 156.346484,83.3 C156.23315,83.766669 156.129818,84.2133312 156.036484,84.64 C155.943151,85.0666688 155.859818,85.446665 155.786484,85.78 C155.713151,86.113335 155.643151,86.346666 155.576484,86.48 L157.476484,86.48 L157.376484,86.96 L155.456484,86.96 C155.336484,87.3733354 155.176485,87.9399964 154.976484,88.66 C154.776483,89.3800036 154.533152,90.1599958 154.246484,91 C153.959816,91.8400042 153.639819,92.6899957 153.286484,93.55 C152.933149,94.4100043 152.543153,95.1899965 152.116484,95.89 C151.689816,96.5900035 151.236487,97.1633311 150.756484,97.61 C150.276482,98.0566689 149.76982,98.28 149.236484,98.28 C148.98315,98.28 148.769819,98.2166673 148.596484,98.09 C148.42315,97.9633327 148.336484,97.7733346 148.336484,97.52 C148.336484,97.3333324 148.40315,97.1600008 148.536484,97 C148.669818,96.8399992 148.836483,96.76 149.036484,96.76 C149.223152,96.76 149.366484,96.8066662 149.466484,96.9 C149.566485,96.9933338 149.646484,97.0933328 149.706484,97.2 C149.766485,97.3066672 149.819817,97.4066662 149.866484,97.5 C149.913151,97.5933338 149.976484,97.64 150.056484,97.64 C150.256485,97.64 150.426484,97.5833339 150.566484,97.47 C150.706485,97.3566661 150.826484,97.2133342 150.926484,97.04 C151.026485,96.8666658 151.113151,96.6833343 151.186484,96.49 C151.259818,96.2966657 151.329817,96.1200008 151.396484,95.96 C151.596485,95.4533308 151.809817,94.8133372 152.036484,94.04 C152.263152,93.2666628 152.489817,92.4600042 152.716484,91.62 C152.943152,90.7799958 153.159817,89.9466708 153.366484,89.12 C153.573152,88.2933292 153.76315,87.5733364 153.936484,86.96 L152.236484,86.96 Z M159.636484,86.48 L161.116484,86.48 L160.016484,89.38 L160.056484,89.42 C160.216485,89.1399986 160.40315,88.8200018 160.616484,88.46 C160.829819,88.0999982 161.07315,87.753335 161.346484,87.42 C161.619819,87.086665 161.916483,86.8066678 162.236484,86.58 C162.556486,86.3533322 162.903149,86.24 163.276484,86.24 C163.64982,86.24 163.95315,86.3499989 164.186484,86.57 C164.419819,86.7900011 164.536484,87.0933314 164.536484,87.48 C164.536484,87.613334 164.519818,87.7599992 164.486484,87.92 C164.453151,88.0800008 164.396485,88.2233327 164.316484,88.35 C164.236484,88.4766673 164.136485,88.5833329 164.016484,88.67 C163.896484,88.7566671 163.749819,88.8 163.576484,88.8 C163.349817,88.8 163.166485,88.733334 163.026484,88.6 C162.886484,88.466666 162.816484,88.2866678 162.816484,88.06 C162.816484,87.9399994 162.839817,87.8266672 162.886484,87.72 C162.933151,87.6133328 162.989817,87.5066672 163.056484,87.4 C162.963151,87.3066662 162.849818,87.2500001 162.716484,87.23 C162.58315,87.2099999 162.456485,87.2 162.336484,87.2 C162.056483,87.2 161.776486,87.3366653 161.496484,87.61 C161.216483,87.8833347 160.946486,88.2333312 160.686484,88.66 C160.426483,89.0866688 160.183152,89.5633307 159.956484,90.09 C159.729817,90.6166693 159.519819,91.1333308 159.326484,91.64 C159.13315,92.1466692 158.969818,92.6099979 158.836484,93.03 C158.70315,93.4500021 158.603151,93.7733322 158.536484,94 L157.176484,94 L159.636484,86.48 Z M171.416484,88.08 C171.416484,88.5200022 171.339818,88.9799976 171.186484,89.46 C171.03315,89.9400024 170.819819,90.4099977 170.546484,90.87 C170.27315,91.3300023 169.956486,91.7633313 169.596484,92.17 C169.236483,92.5766687 168.84982,92.9333318 168.436484,93.24 C168.023149,93.5466682 167.593153,93.7899991 167.146484,93.97 C166.699815,94.1500009 166.263153,94.24 165.836484,94.24 C165.489816,94.24 165.206485,94.1933338 164.986484,94.1 C164.766483,94.0066662 164.589818,93.8800008 164.456484,93.72 C164.32315,93.5599992 164.233151,93.3666678 164.186484,93.14 C164.139817,92.9133322 164.116484,92.666668 164.116484,92.4 C164.116484,91.9599978 164.206483,91.5000024 164.386484,91.02 C164.566485,90.5399976 164.806483,90.0700023 165.106484,89.61 C165.406486,89.1499977 165.749816,88.7166687 166.136484,88.31 C166.523153,87.9033313 166.923149,87.5466682 167.336484,87.24 C167.74982,86.9333318 168.163149,86.6900009 168.576484,86.51 C168.98982,86.3299991 169.363149,86.24 169.696484,86.24 C170.043153,86.24 170.326483,86.2866662 170.546484,86.38 C170.766485,86.4733338 170.94315,86.5999992 171.076484,86.76 C171.209818,86.9200008 171.299817,87.1133322 171.346484,87.34 C171.393151,87.5666678 171.416484,87.813332 171.416484,88.08 Z M168.736484,86.88 C168.429816,86.88 168.139819,86.9899989 167.866484,87.21 C167.59315,87.4300011 167.343152,87.7166649 167.116484,88.07 C166.889817,88.4233351 166.689819,88.8166645 166.516484,89.25 C166.34315,89.6833355 166.193152,90.1133312 166.066484,90.54 C165.939817,90.9666688 165.843151,91.3633315 165.776484,91.73 C165.709817,92.0966685 165.676484,92.3933322 165.676484,92.62 C165.676484,93.3800038 166.049814,93.76 166.796484,93.76 C167.103153,93.76 167.39315,93.6500011 167.666484,93.43 C167.939819,93.2099989 168.189817,92.9233351 168.416484,92.57 C168.643152,92.2166649 168.84315,91.8233355 169.016484,91.39 C169.189819,90.9566645 169.339817,90.5266688 169.466484,90.1 C169.593152,89.6733312 169.689817,89.2766685 169.756484,88.91 C169.823151,88.5433315 169.856484,88.2466678 169.856484,88.02 C169.856484,87.2599962 169.483155,86.88 168.736484,86.88 Z M174.456484,86.48 L175.936484,86.48 L174.636484,89.98 L174.676484,90.02 C174.943152,89.6066646 175.219816,89.1766689 175.506484,88.73 C175.793152,88.2833311 176.109816,87.8766685 176.456484,87.51 C176.803153,87.1433315 177.196482,86.8400012 177.636484,86.6 C178.076487,86.3599988 178.576482,86.24 179.136484,86.24 C179.469819,86.24 179.73315,86.3466656 179.926484,86.56 C180.119819,86.7733344 180.216484,87.046665 180.216484,87.38 C180.216484,87.5266674 180.169818,87.7466652 180.076484,88.04 C179.983151,88.3333348 179.873152,88.6433317 179.746484,88.97 C179.619817,89.2966683 179.493152,89.6133318 179.366484,89.92 C179.239817,90.2266682 179.149818,90.4599992 179.096484,90.62 L179.136484,90.66 C179.416486,90.2066644 179.70315,89.7200026 179.996484,89.2 C180.289819,88.6799974 180.616483,88.2000022 180.976484,87.76 C181.336486,87.3199978 181.749815,86.9566681 182.216484,86.67 C182.683153,86.3833319 183.229815,86.24 183.856484,86.24 C184.163153,86.24 184.439816,86.3466656 184.686484,86.56 C184.933152,86.7733344 185.056484,87.046665 185.056484,87.38 C185.056484,87.5266674 185.009818,87.7466652 184.916484,88.04 C184.823151,88.3333348 184.703152,88.6566649 184.556484,89.01 C184.409817,89.3633351 184.256485,89.7333314 184.096484,90.12 C183.936484,90.5066686 183.783152,90.866665 183.636484,91.2 C183.489817,91.533335 183.369818,91.8266654 183.276484,92.08 C183.183151,92.3333346 183.136484,92.5066662 183.136484,92.6 C183.136484,92.8800014 183.199817,93.0633329 183.326484,93.15 C183.453152,93.2366671 183.64315,93.28 183.896484,93.28 C184.096485,93.28 184.296483,93.213334 184.496484,93.08 C184.696485,92.946666 184.886483,92.7966675 185.066484,92.63 C185.246485,92.4633325 185.399817,92.313334 185.526484,92.18 C185.653152,92.046666 185.736484,91.98 185.776484,91.98 C185.803151,91.98 185.833151,91.9899999 185.866484,92.01 C185.899818,92.0300001 185.916484,92.0599998 185.916484,92.1 C185.916484,92.1266668 185.826485,92.2433323 185.646484,92.45 C185.466483,92.6566677 185.233152,92.8799988 184.946484,93.12 C184.659816,93.3600012 184.333153,93.579999 183.966484,93.78 C183.599816,93.980001 183.22982,94.08 182.856484,94.08 C182.549816,94.08 182.256486,93.9833343 181.976484,93.79 C181.696483,93.5966657 181.556484,93.333335 181.556484,93 C181.556484,92.8933328 181.603151,92.7100013 181.696484,92.45 C181.789818,92.1899987 181.909817,91.8866684 182.056484,91.54 C182.203152,91.1933316 182.359817,90.8266686 182.526484,90.44 C182.693152,90.0533314 182.849817,89.6800018 182.996484,89.32 C183.143152,88.9599982 183.263151,88.6366681 183.356484,88.35 C183.449818,88.0633319 183.496484,87.8466674 183.496484,87.7 C183.496484,87.5133324 183.429818,87.3566673 183.296484,87.23 C183.16315,87.1033327 183.003152,87.04 182.816484,87.04 C182.456483,87.04 182.099819,87.1699987 181.746484,87.43 C181.393149,87.6900013 181.056486,88.0299979 180.736484,88.45 C180.416483,88.8700021 180.113152,89.3399974 179.826484,89.86 C179.539816,90.3800026 179.279819,90.8966641 179.046484,91.41 C178.81315,91.9233359 178.609819,92.4099977 178.436484,92.87 C178.26315,93.3300023 178.129818,93.7066652 178.036484,94 L176.636484,94 C176.716485,93.6533316 176.866483,93.1933362 177.086484,92.62 C177.306485,92.0466638 177.53315,91.4500031 177.766484,90.83 C177.999819,90.2099969 178.206483,89.6233361 178.386484,89.07 C178.566485,88.5166639 178.656484,88.0933348 178.656484,87.8 C178.656484,87.2933308 178.396487,87.04 177.876484,87.04 C177.556483,87.04 177.226486,87.1799986 176.886484,87.46 C176.546483,87.7400014 176.216486,88.0999978 175.896484,88.54 C175.576483,88.9800022 175.273152,89.466664 174.986484,90 C174.699816,90.533336 174.439819,91.0599974 174.206484,91.58 C173.97315,92.1000026 173.776485,92.5766645 173.616484,93.01 C173.456484,93.4433355 173.349818,93.7733322 173.296484,94 L171.996484,94 L174.456484,86.48 Z M197.096484,79.76 C197.016484,79.9866678 196.896485,80.333331 196.736484,80.8 C196.576484,81.266669 196.386485,81.8099969 196.166484,82.43 C195.946483,83.0500031 195.709819,83.7166631 195.456484,84.43 C195.20315,85.1433369 194.949819,85.8633297 194.696484,86.59 C194.44315,87.3166703 194.196486,88.0199966 193.956484,88.7 C193.716483,89.3800034 193.506485,89.9999972 193.326484,90.56 C193.146483,91.1200028 193.003152,91.5899981 192.896484,91.97 C192.789817,92.3500019 192.736484,92.5999994 192.736484,92.72 C192.736484,92.8400006 192.769817,92.9366663 192.836484,93.01 C192.903151,93.0833337 192.986484,93.1399998 193.086484,93.18 C193.186485,93.2200002 193.29315,93.2466666 193.406484,93.26 C193.519818,93.2733334 193.616484,93.28 193.696484,93.28 C193.936486,93.28 194.176483,93.2233339 194.416484,93.11 C194.656486,92.9966661 194.87315,92.873334 195.066484,92.74 C195.259819,92.606666 195.419817,92.4833339 195.546484,92.37 C195.673152,92.2566661 195.743151,92.2 195.756484,92.2 C195.823151,92.2 195.856484,92.233333 195.856484,92.3 C195.856484,92.3400002 195.743152,92.4666656 195.516484,92.68 C195.289817,92.8933344 195.006486,93.1133322 194.666484,93.34 C194.326483,93.5666678 193.966486,93.7733324 193.586484,93.96 C193.206482,94.1466676 192.856486,94.24 192.536484,94.24 C192.203149,94.24 191.893152,94.1333344 191.606484,93.92 C191.319816,93.7066656 191.176484,93.4200018 191.176484,93.06 C191.176484,92.993333 191.239817,92.7633353 191.366484,92.37 C191.493152,91.9766647 191.66315,91.4666698 191.876484,90.84 C192.089819,90.2133302 192.34315,89.4833375 192.636484,88.65 C192.929819,87.8166625 193.239816,86.9200048 193.566484,85.96 C193.893153,84.9999952 194.229816,83.9933386 194.576484,82.94 C194.923153,81.8866614 195.263149,80.826672 195.596484,79.76 L197.096484,79.76 Z M197.476484,92.44 C197.476484,92.6933346 197.56315,92.8966659 197.736484,93.05 C197.909819,93.2033341 198.116483,93.28 198.356484,93.28 C198.663153,93.28 198.96315,93.1866676 199.256484,93 C199.549819,92.8133324 199.826483,92.5833347 200.086484,92.31 C200.346486,92.0366653 200.576483,91.7433349 200.776484,91.43 C200.976485,91.1166651 201.129817,90.8400012 201.236484,90.6 C201.276485,90.4933328 201.35315,90.3200012 201.466484,90.08 C201.579818,89.8399988 201.689817,89.5900013 201.796484,89.33 C201.903152,89.0699987 201.999817,88.8266678 202.086484,88.6 C202.173151,88.3733322 202.216484,88.226667 202.216484,88.16 C202.216484,87.9999992 202.166485,87.8500007 202.066484,87.71 C201.966484,87.5699993 201.843152,87.4466672 201.696484,87.34 C201.549817,87.2333328 201.393152,87.1500003 201.226484,87.09 C201.059817,87.0299997 200.909818,87 200.776484,87 C200.60315,87 200.459818,87.0133332 200.346484,87.04 C200.23315,87.0666668 200.136485,87.1099997 200.056484,87.17 C199.976484,87.2300003 199.903151,87.3066662 199.836484,87.4 C199.769817,87.4933338 199.683152,87.606666 199.576484,87.74 C199.349817,88.0600016 199.113152,88.4066648 198.866484,88.78 C198.619816,89.1533352 198.393152,89.5466646 198.186484,89.96 C197.979817,90.3733354 197.809818,90.7899979 197.676484,91.21 C197.54315,91.6300021 197.476484,92.039998 197.476484,92.44 Z M204.276484,86.36 C204.183151,86.5333342 204.063152,86.8066648 203.916484,87.18 C203.769817,87.5533352 203.609819,87.973331 203.436484,88.44 C203.26315,88.906669 203.089819,89.3833309 202.916484,89.87 C202.74315,90.3566691 202.583152,90.8099979 202.436484,91.23 C202.289817,91.6500021 202.173151,92.0066652 202.086484,92.3 C201.999817,92.5933348 201.956484,92.773333 201.956484,92.84 C201.956484,93.040001 202.049817,93.1833329 202.236484,93.27 C202.423152,93.3566671 202.60315,93.4 202.776484,93.4 C202.976485,93.4 203.169817,93.3433339 203.356484,93.23 C203.543152,93.1166661 203.716484,92.993334 203.876484,92.86 C204.036485,92.726666 204.176484,92.6033339 204.296484,92.49 C204.416485,92.3766661 204.509817,92.32 204.576484,92.32 C204.656485,92.32 204.696484,92.3466664 204.696484,92.4 C204.696484,92.4400002 204.606485,92.559999 204.426484,92.76 C204.246483,92.960001 204.006486,93.1699989 203.706484,93.39 C203.406483,93.6100011 203.063153,93.8066658 202.676484,93.98 C202.289816,94.1533342 201.88982,94.24 201.476484,94.24 C201.236483,94.24 200.983152,94.1700007 200.716484,94.03 C200.449816,93.8899993 200.316484,93.6733348 200.316484,93.38 C200.316484,93.2599994 200.356484,93.0966677 200.436484,92.89 C200.516485,92.6833323 200.609817,92.4733344 200.716484,92.26 C200.823152,92.0466656 200.929817,91.8366677 201.036484,91.63 C201.143152,91.4233323 201.223151,91.2600006 201.276484,91.14 L201.236484,91.1 C201.049817,91.3933348 200.799819,91.7233315 200.486484,92.09 C200.173149,92.4566685 199.82982,92.7999984 199.456484,93.12 C199.083149,93.4400016 198.693153,93.7066656 198.286484,93.92 C197.879816,94.1333344 197.48982,94.24 197.116484,94.24 C196.889817,94.24 196.699818,94.1900005 196.546484,94.09 C196.39315,93.9899995 196.269818,93.8633341 196.176484,93.71 C196.083151,93.5566659 196.016485,93.3833343 195.976484,93.19 C195.936484,92.9966657 195.916484,92.8066676 195.916484,92.62 C195.916484,92.1266642 196.02315,91.6266692 196.236484,91.12 C196.449819,90.6133308 196.726483,90.1233357 197.066484,89.65 C197.406486,89.1766643 197.793149,88.7333354 198.226484,88.32 C198.65982,87.9066646 199.089816,87.5466682 199.516484,87.24 C199.943153,86.9333318 200.353149,86.6900009 200.746484,86.51 C201.13982,86.3299991 201.469816,86.24 201.736484,86.24 C201.963152,86.24 202.159817,86.3133326 202.326484,86.46 C202.493152,86.6066674 202.609817,86.7866656 202.676484,87 C202.796485,86.7733322 202.889817,86.560001 202.956484,86.36 L204.276484,86.36 Z M211.596484,86.96 L209.016484,86.96 C208.936484,87.2666682 208.796485,87.7066638 208.596484,88.28 C208.396483,88.8533362 208.193152,89.4433303 207.986484,90.05 C207.779817,90.6566697 207.599818,91.2133308 207.446484,91.72 C207.29315,92.2266692 207.216484,92.5666658 207.216484,92.74 C207.216484,93.206669 207.436482,93.44 207.876484,93.44 C208.116486,93.44 208.34315,93.3866672 208.556484,93.28 C208.769819,93.1733328 208.96315,93.0600006 209.136484,92.94 C209.309819,92.8199994 209.45315,92.7066672 209.566484,92.6 C209.679818,92.4933328 209.743151,92.44 209.756484,92.44 C209.836485,92.44 209.876484,92.4799996 209.876484,92.56 C209.876484,92.6133336 209.776485,92.7333324 209.576484,92.92 C209.376483,93.1066676 209.126486,93.2966657 208.826484,93.49 C208.526483,93.6833343 208.203153,93.8566659 207.856484,94.01 C207.509816,94.1633341 207.196486,94.24 206.916484,94.24 C206.569816,94.24 206.266486,94.1433343 206.006484,93.95 C205.746483,93.7566657 205.616484,93.4733352 205.616484,93.1 C205.616484,93.0733332 205.663151,92.9066682 205.756484,92.6 C205.849818,92.2933318 205.979817,91.8966691 206.146484,91.41 C206.313152,90.9233309 206.499817,90.3633365 206.706484,89.73 C206.913152,89.0966635 207.13315,88.4366701 207.366484,87.75 C207.599819,87.0633299 207.83315,86.3666702 208.066484,85.66 C208.299819,84.9533298 208.52315,84.2800032 208.736484,83.64 L210.276484,83.26 L209.176484,86.48 L211.716484,86.48 L211.596484,86.96 Z M215.976484,87.5 C215.976484,87.3133324 215.916485,87.1900003 215.796484,87.13 C215.676484,87.0699997 215.523152,87.04 215.336484,87.04 C215.08315,87.04 214.836486,87.1499989 214.596484,87.37 C214.356483,87.5900011 214.136485,87.8499985 213.936484,88.15 C213.736483,88.4500015 213.569818,88.7599984 213.436484,89.08 C213.30315,89.4000016 213.203151,89.659999 213.136484,89.86 C213.376486,89.8199998 213.659816,89.7266674 213.986484,89.58 C214.313153,89.4333326 214.62315,89.2533344 214.916484,89.04 C215.209819,88.8266656 215.459817,88.586668 215.666484,88.32 C215.873152,88.053332 215.976484,87.7800014 215.976484,87.5 Z M212.616484,91.8 C212.616484,92.266669 212.726483,92.6433319 212.946484,92.93 C213.166485,93.2166681 213.529815,93.36 214.036484,93.36 C214.329819,93.36 214.59315,93.3166671 214.826484,93.23 C215.059819,93.1433329 215.276483,93.033334 215.476484,92.9 C215.676485,92.766666 215.86315,92.6200008 216.036484,92.46 C216.209819,92.2999992 216.376484,92.153334 216.536484,92.02 C216.603151,91.9666664 216.656484,91.9133336 216.696484,91.86 C216.736485,91.8066664 216.769818,91.78 216.796484,91.78 C216.889818,91.78 216.936484,91.8066664 216.936484,91.86 C216.936484,91.926667 216.816486,92.0899987 216.576484,92.35 C216.336483,92.6100013 216.023153,92.8799986 215.636484,93.16 C215.249816,93.4400014 214.813153,93.6899989 214.326484,93.91 C213.839815,94.1300011 213.343154,94.24 212.836484,94.24 C212.276482,94.24 211.833153,94.0900015 211.506484,93.79 C211.179816,93.4899985 211.016484,93.0600028 211.016484,92.5 C211.016484,92.0733312 211.10315,91.6200024 211.276484,91.14 C211.449819,90.6599976 211.679816,90.1900023 211.966484,89.73 C212.253152,89.2699977 212.583149,88.8300021 212.956484,88.41 C213.32982,87.9899979 213.719816,87.6166683 214.126484,87.29 C214.533153,86.9633317 214.939816,86.7066676 215.346484,86.52 C215.753153,86.3333324 216.136483,86.24 216.496484,86.24 C217.136488,86.24 217.456484,86.5599968 217.456484,87.2 C217.456484,87.6400022 217.286486,88.0333316 216.946484,88.38 C216.606483,88.7266684 216.19982,89.0266654 215.726484,89.28 C215.253149,89.5333346 214.763154,89.7399992 214.256484,89.9 C213.749815,90.0600008 213.329819,90.1799996 212.996484,90.26 C212.889817,90.460001 212.799818,90.7133318 212.726484,91.02 C212.653151,91.3266682 212.616484,91.5866656 212.616484,91.8 Z M220.356484,86.48 L221.836484,86.48 L220.736484,89.38 L220.776484,89.42 C220.936485,89.1399986 221.12315,88.8200018 221.336484,88.46 C221.549819,88.0999982 221.79315,87.753335 222.066484,87.42 C222.339819,87.086665 222.636483,86.8066678 222.956484,86.58 C223.276486,86.3533322 223.623149,86.24 223.996484,86.24 C224.36982,86.24 224.67315,86.3499989 224.906484,86.57 C225.139819,86.7900011 225.256484,87.0933314 225.256484,87.48 C225.256484,87.613334 225.239818,87.7599992 225.206484,87.92 C225.173151,88.0800008 225.116485,88.2233327 225.036484,88.35 C224.956484,88.4766673 224.856485,88.5833329 224.736484,88.67 C224.616484,88.7566671 224.469819,88.8 224.296484,88.8 C224.069817,88.8 223.886485,88.733334 223.746484,88.6 C223.606484,88.466666 223.536484,88.2866678 223.536484,88.06 C223.536484,87.9399994 223.559817,87.8266672 223.606484,87.72 C223.653151,87.6133328 223.709817,87.5066672 223.776484,87.4 C223.683151,87.3066662 223.569818,87.2500001 223.436484,87.23 C223.30315,87.2099999 223.176485,87.2 223.056484,87.2 C222.776483,87.2 222.496486,87.3366653 222.216484,87.61 C221.936483,87.8833347 221.666486,88.2333312 221.406484,88.66 C221.146483,89.0866688 220.903152,89.5633307 220.676484,90.09 C220.449817,90.6166693 220.239819,91.1333308 220.046484,91.64 C219.85315,92.1466692 219.689818,92.6099979 219.556484,93.03 C219.42315,93.4500021 219.323151,93.7733322 219.256484,94 L217.896484,94 L220.356484,86.48 Z" id="[-Recordings-]-from"></path>
        </g>
    </g>
</svg>
