
<svg width="330px" height="34px" viewBox="0 0 330 34" version="1.1" xmlns="http://www.w3.org/2000/svg" xmlns:xlink="http://www.w3.org/1999/xlink">
    <g id="Page-1" stroke="none" stroke-width="1" fill="none" fill-rule="evenodd">
        <path d="M9.06054688,33.4023438 L0.693359375,33.4023438 L0.693359375,1.1640625 L9.06054688,1.1640625 L9.06054688,1.97265625 L4.98242188,1.97265625 C4.27929336,1.97265625 3.7929701,2.06347565 3.5234375,2.24511719 C3.2539049,2.42675872 3.08691438,2.68456864 3.02246094,3.01855469 C2.95800749,3.35254073 2.92578125,4.12890016 2.92578125,5.34765625 L2.92578125,29.2011719 C2.92578125,30.3847715 2.95507783,31.1494123 3.01367188,31.4951172 C3.07226592,31.840822 3.23339712,32.1103506 3.49707031,32.3037109 C3.76074351,32.4970713 4.25585574,32.59375 4.98242188,32.59375 L9.06054688,32.59375 L9.06054688,33.4023438 Z M38.2238281,17.5820312 L39.0675781,17.5820312 L38.5578125,25 L18.8175781,25 L18.8175781,24.1914062 L19.3097656,24.1914062 C20.4933653,24.1914062 21.2580061,24.0332047 21.6037109,23.7167969 C21.9494158,23.400389 22.1691402,22.9990259 22.2628906,22.5126953 C22.3566411,22.0263648 22.4035156,20.7871193 22.4035156,18.7949219 L22.4035156,7.10546875 C22.4035156,5.28905342 22.3537114,4.09375287 22.2541016,3.51953125 C22.1544917,2.94530963 21.9259783,2.54394646 21.5685547,2.31542969 C21.211131,2.08691292 20.4582089,1.97265625 19.3097656,1.97265625 L19.3097656,1.1640625 L36.3429688,1.1640625 L36.9054688,7.10546875 L36.0792969,7.10546875 C35.704295,5.44139793 35.2443387,4.26074567 34.6994141,3.56347656 C34.1544895,2.86620745 33.507035,2.42675872 32.7570313,2.24511719 C32.0070275,2.06347565 30.8000083,1.97265625 29.1359375,1.97265625 L25.83125,1.97265625 L25.83125,11.9746094 L28.3625,11.9746094 C29.5226621,11.9746094 30.3341774,11.875001 30.7970703,11.6757812 C31.2599633,11.4765615 31.5646477,11.1748067 31.7111328,10.7705078 C31.8576179,10.3662089 31.9308594,9.57813086 31.9308594,8.40625 L32.7570313,8.40625 L32.7570313,16.5625 L31.9308594,16.5625 C31.9308594,15.2382746 31.8195324,14.3505882 31.596875,13.8994141 C31.3742176,13.4482399 31.0490256,13.1552741 30.6212891,13.0205078 C30.1935525,12.8857415 29.469927,12.8183594 28.4503906,12.8183594 L25.83125,12.8183594 L25.83125,18.4609375 C25.83125,21.2851704 26.0128888,22.9462866 26.3761719,23.4443359 C26.7394549,23.9423853 27.7179608,24.1914062 29.3117188,24.1914062 L31.0871094,24.1914062 C32.3410219,24.1914062 33.3722616,24.030275 34.1808594,23.7080078 C34.9894572,23.3857406 35.7599573,22.7236378 36.4923828,21.7216797 C37.2248083,20.7197216 37.801951,19.3398525 38.2238281,17.5820312 Z M44.7722656,10.0234375 L45.246875,10.0234375 C45.4460947,10.6796908 45.5457031,11.4706985 45.5457031,12.3964844 C46.2957069,11.5996054 47.1013629,11.0048848 47.9626953,10.6123047 C48.8240277,10.2197246 49.7351514,10.0234375 50.6960937,10.0234375 C52.6882912,10.0234375 54.3464778,10.7236258 55.6707031,12.1240234 C56.9949285,13.5244211 57.6570312,15.3730354 57.6570312,17.6699219 C57.6570312,19.9199331 56.9919988,21.8007737 55.6619141,23.3125 C54.3318293,24.8242263 52.5828233,25.5800781 50.4148437,25.5800781 C49.5242143,25.5800781 48.6716838,25.401369 47.8572266,25.0439453 C47.0427694,24.6865217 46.2722693,24.1562535 45.5457031,23.453125 L45.5457031,28.9199219 C45.5457031,30.5839927 45.5779294,31.5976544 45.6423828,31.9609375 C45.7068363,32.3242206 45.8914047,32.5966788 46.1960937,32.7783203 C46.5007828,32.9599618 47.0691365,33.0507812 47.9011719,33.0507812 L47.9011719,33.859375 L40.3777344,33.859375 L40.3777344,33.0507812 L40.9050781,33.0507812 C41.7371135,33.0507812 42.2791003,32.9306653 42.5310547,32.6904297 C42.7830091,32.4501941 42.929492,32.1630876 42.9705078,31.8291016 C43.0115236,31.4951155 43.0320312,30.5253987 43.0320312,28.9199219 L43.0320312,15.8417969 C43.0320312,14.3066329 43.0115236,13.3398457 42.9705078,12.9414062 C42.929492,12.5429668 42.7625015,12.2382823 42.4695312,12.0273438 C42.176561,11.8164052 41.6550819,11.7109375 40.9050781,11.7109375 L40.3777344,11.7109375 L40.3777344,10.9023438 C41.5378964,10.7851557 43.0027255,10.4921898 44.7722656,10.0234375 Z M45.5457031,22.2929688 C46.1785188,23.0664101 46.8494105,23.6494121 47.5583984,24.0419922 C48.2673864,24.4345723 49.0144492,24.6308594 49.7996094,24.6308594 C51.1238347,24.6308594 52.2781201,24.0625057 53.2625,22.9257812 C54.2468799,21.7890568 54.7390625,19.978528 54.7390625,17.4941406 C54.7390625,15.3378798 54.2644579,13.7265678 53.3152344,12.6601562 C52.3660109,11.5937447 51.2351628,11.0605469 49.9226562,11.0605469 C49.1140585,11.0605469 48.346488,11.2656229 47.6199219,11.6757812 C46.8933557,12.0859396 46.2019564,12.7070271 45.5457031,13.5390625 L45.5457031,22.2929688 Z M65.1019531,12.9765625 C65.8050816,11.9921826 66.5931597,11.2539087 67.4662109,10.7617188 C68.3392622,10.2695288 69.2972604,10.0234375 70.3402344,10.0234375 C71.523834,10.0234375 72.5052695,10.2695288 73.2845703,10.7617188 C74.0638711,11.2539087 74.570702,11.860348 74.8050781,12.5810547 C75.0394543,13.3017614 75.1566406,14.470695 75.1566406,16.0878906 L75.1566406,20.0605469 C75.1566406,21.7480553 75.1888669,22.7734357 75.2533203,23.1367188 C75.3177738,23.5000018 75.5082015,23.7666007 75.8246094,23.9365234 C76.1410172,24.1064462 76.7269488,24.1914062 77.5824219,24.1914062 L77.5824219,25 L70.146875,25 L70.146875,24.1914062 L70.4808594,24.1914062 C71.3363324,24.1914062 71.8900378,24.0683606 72.1419922,23.8222656 C72.3939466,23.5761706 72.5404295,23.2861345 72.5814453,22.9521484 C72.6224611,22.6181624 72.6429688,21.6543048 72.6429688,20.0605469 L72.6429688,15.7363281 C72.6429688,14.5410096 72.572657,13.6562529 72.4320313,13.0820312 C72.2914055,12.5078096 71.9603542,12.033205 71.4388672,11.6582031 C70.9173802,11.2832012 70.2640664,11.0957031 69.4789063,11.0957031 C68.5648392,11.0957031 67.7445349,11.362302 67.0179688,11.8955078 C66.2914026,12.4287136 65.6527371,13.2285103 65.1019531,14.2949219 L65.1019531,20.0605469 C65.1019531,21.6777425 65.12832,22.6738262 65.1810547,23.0488281 C65.2337893,23.42383 65.4124985,23.7080068 65.7171875,23.9013672 C66.0218765,24.0947275 66.5785116,24.1914062 67.3871094,24.1914062 L67.3871094,25 L60.0746094,25 L60.0746094,24.1914062 L60.44375,24.1914062 C61.2875042,24.1914062 61.8353503,24.0712903 62.0873047,23.8310547 C62.3392591,23.5908191 62.485742,23.3037126 62.5267578,22.9697266 C62.5677736,22.6357405 62.5882813,21.6660237 62.5882813,20.0605469 L62.5882813,5.71679688 C62.5882813,4.26366461 62.4505873,3.34375193 62.1751953,2.95703125 C61.8998033,2.57031057 61.2406302,2.37695312 60.1976563,2.37695312 L60.1976563,1.56835938 C62.0140716,1.56835938 63.5257752,1.32226809 64.7328125,0.830078125 L65.1019531,0.830078125 L65.1019531,12.9765625 Z M92.8847656,15.4726562 L82.8476563,15.4726562 C82.800781,16.164066 82.7773438,16.6796858 82.7773438,17.0195312 C82.7773438,19.5507939 83.1728476,21.4521421 83.9638672,22.7236328 C84.7548868,23.9951235 85.935539,24.6308594 87.5058594,24.6308594 C89.6386825,24.6308594 91.1503862,23.6757908 92.0410156,21.765625 L92.8847656,21.765625 C92.5097638,22.9609435 91.7656306,23.8955044 90.6523438,24.5693359 C89.5390569,25.2431674 88.3261784,25.5800781 87.0136719,25.5800781 C85.7949158,25.5800781 84.6435601,25.272464 83.5595703,24.6572266 C82.4755805,24.0419891 81.5878941,23.1718806 80.8964844,22.046875 C80.2050747,20.9218694 79.859375,19.5566487 79.859375,17.9511719 C79.859375,15.677723 80.5273371,13.7880935 81.8632813,12.2822266 C83.1992254,10.7763597 84.8691306,10.0234375 86.8730469,10.0234375 C88.7597751,10.0234375 90.2187448,10.5976505 91.25,11.7460938 C92.2812552,12.894537 92.8261716,14.1367121 92.8847656,15.4726562 Z M89.8085938,14.7695312 C89.8437502,14.4999987 89.8613281,14.2597667 89.8613281,14.0488281 C89.8613281,13.017573 89.5595733,12.2177763 88.9560547,11.6494141 C88.352536,11.0810518 87.6113325,10.796875 86.7324219,10.796875 C84.5995987,10.796875 83.3281271,12.1210805 82.9179688,14.7695312 L89.8085938,14.7695312 Z M99.4507812,10.0234375 L99.6265625,10.0234375 C99.9664079,10.8085977 100.136328,11.8164001 100.136328,13.046875 C100.921488,12.0390575 101.76816,11.2832056 102.676367,10.7792969 C103.584575,10.2753881 104.560151,10.0234375 105.603125,10.0234375 C106.786725,10.0234375 107.747653,10.2929661 108.485937,10.8320312 C109.224222,11.3710964 109.739842,12.1796821 110.032812,13.2578125 C110.923442,12.1796821 111.837495,11.3710964 112.775,10.8320312 C113.712505,10.2929661 114.667573,10.0234375 115.640234,10.0234375 C116.753521,10.0234375 117.696871,10.2812474 118.470312,10.796875 C119.243754,11.3125026 119.712499,11.8984342 119.876562,12.5546875 C120.040626,13.2109408 120.122656,14.2714771 120.122656,15.7363281 L120.122656,20.0605469 C120.122656,21.7363365 120.154882,22.7558576 120.219336,23.1191406 C120.283789,23.4824237 120.471288,23.7519522 120.781836,23.9277344 C121.092384,24.1035165 121.669527,24.1914062 122.513281,24.1914062 L122.513281,25 L115.323828,25 L115.323828,24.1914062 C116.085551,24.1914062 116.621678,24.1064462 116.932227,23.9365234 C117.242775,23.7666007 117.433203,23.5087908 117.503516,23.1630859 C117.573828,22.8173811 117.608984,21.7832117 117.608984,20.0605469 L117.608984,15.2617188 C117.608984,14.2890576 117.553321,13.5566431 117.441992,13.0644531 C117.330664,12.5722632 117.040627,12.1503924 116.571875,11.7988281 C116.103123,11.4472639 115.493754,11.2714844 114.74375,11.2714844 C113.982027,11.2714844 113.217387,11.5292943 112.449805,12.0449219 C111.682223,12.5605495 110.911723,13.3398385 110.138281,14.3828125 L110.138281,20.0605469 C110.138281,21.5957108 110.158789,22.5595683 110.199805,22.9521484 C110.240821,23.3447285 110.404881,23.649413 110.691992,23.8662109 C110.979103,24.0830089 111.491793,24.1914062 112.230078,24.1914062 L112.230078,25 L105.269141,25 L105.269141,24.1914062 C106.054301,24.1914062 106.602147,24.1093758 106.912695,23.9453125 C107.223244,23.7812492 107.416601,23.5292986 107.492773,23.1894531 C107.568946,22.8496077 107.607031,21.8066494 107.607031,20.0605469 L107.607031,16.0703125 C107.607031,14.8046812 107.557227,13.8876982 107.457617,13.3193359 C107.358007,12.7509737 107.056253,12.2646505 106.552344,11.8603516 C106.048435,11.4560527 105.421488,11.2539062 104.671484,11.2539062 C103.944918,11.2539062 103.203715,11.4882789 102.447852,11.9570312 C101.691988,12.4257836 100.921488,13.1289016 100.136328,14.0664062 L100.136328,20.0605469 C100.136328,21.642586 100.159765,22.6269512 100.206641,23.0136719 C100.253516,23.4003926 100.429295,23.6933584 100.733984,23.8925781 C101.038673,24.0917979 101.58359,24.1914062 102.36875,24.1914062 L102.36875,25 L95.3199219,25 L95.3199219,24.1914062 C96.0933632,24.1914062 96.63535,24.1064462 96.9458984,23.9365234 C97.2564469,23.7666007 97.4468746,23.5117204 97.5171875,23.171875 C97.5875004,22.8320296 97.6226562,21.7949305 97.6226562,20.0605469 L97.6226562,15.7539062 C97.6226562,14.113273 97.5962893,13.1084003 97.5435547,12.7392578 C97.49082,12.3701153 97.3091812,12.0917978 96.9986328,11.9042969 C96.6880844,11.7167959 96.1285197,11.6230469 95.3199219,11.6230469 L95.3199219,10.8144531 C96.9839927,10.6503898 98.3609321,10.3867206 99.4507812,10.0234375 Z M137.815625,15.4726562 L127.778516,15.4726562 C127.73164,16.164066 127.708203,16.6796858 127.708203,17.0195312 C127.708203,19.5507939 128.103707,21.4521421 128.894727,22.7236328 C129.685746,23.9951235 130.866398,24.6308594 132.436719,24.6308594 C134.569542,24.6308594 136.081246,23.6757908 136.971875,21.765625 L137.815625,21.765625 C137.440623,22.9609435 136.69649,23.8955044 135.583203,24.5693359 C134.469916,25.2431674 133.257038,25.5800781 131.944531,25.5800781 C130.725775,25.5800781 129.574419,25.272464 128.49043,24.6572266 C127.40644,24.0419891 126.518753,23.1718806 125.827344,22.046875 C125.135934,20.9218694 124.790234,19.5566487 124.790234,17.9511719 C124.790234,15.677723 125.458196,13.7880935 126.794141,12.2822266 C128.130085,10.7763597 129.79999,10.0234375 131.803906,10.0234375 C133.690634,10.0234375 135.149604,10.5976505 136.180859,11.7460938 C137.212115,12.894537 137.757031,14.1367121 137.815625,15.4726562 Z M134.739453,14.7695312 C134.77461,14.4999987 134.792188,14.2597667 134.792188,14.0488281 C134.792188,13.017573 134.490433,12.2177763 133.886914,11.6494141 C133.283395,11.0810518 132.542192,10.796875 131.663281,10.796875 C129.530458,10.796875 128.258986,12.1210805 127.848828,14.7695312 L134.739453,14.7695312 Z M145.330859,13.6972656 C145.729299,12.6542917 146.376753,11.7812535 147.273242,11.078125 C148.169731,10.3749965 149.045699,10.0234375 149.901172,10.0234375 C150.674613,10.0234375 151.283982,10.2636695 151.729297,10.7441406 C152.174612,11.2246118 152.397266,11.7167944 152.397266,12.2207031 C152.397266,12.5605486 152.283009,12.8535144 152.054492,13.0996094 C151.825975,13.3457044 151.547658,13.46875 151.219531,13.46875 C150.633591,13.46875 150.188283,13.0351606 149.883594,12.1679688 C149.672655,11.5820283 149.356252,11.2890625 148.934375,11.2890625 C148.430466,11.2890625 147.826957,11.6318325 147.123828,12.3173828 C146.4207,13.0029331 145.969532,13.7148401 145.770313,14.453125 C145.571093,15.1914099 145.471484,16.2050717 145.471484,17.4941406 L145.471484,20.0605469 C145.471484,21.5957108 145.491992,22.562498 145.533008,22.9609375 C145.574024,23.359377 145.741014,23.6640614 146.033984,23.875 C146.326955,24.0859386 146.848434,24.1914062 147.598438,24.1914062 L148.090625,24.1914062 L148.090625,25 L140.444141,25 L140.444141,24.1914062 L140.813281,24.1914062 C141.51641,24.1914062 142.017381,24.0947275 142.316211,23.9013672 C142.615041,23.7080068 142.79375,23.4355486 142.852344,23.0839844 C142.910938,22.7324201 142.940234,21.7246177 142.940234,20.0605469 L142.940234,16 C142.940234,14.4531173 142.919727,13.4834004 142.878711,13.0908203 C142.837695,12.6982402 142.670705,12.3935558 142.377734,12.1767578 C142.084764,11.9599599 141.563285,11.8515625 140.813281,11.8515625 L140.444141,11.8515625 L140.444141,11.0605469 C141.545709,10.93164 142.9871,10.5859403 144.768359,10.0234375 C145.108205,10.9492234 145.295703,12.1738205 145.330859,13.6972656 Z M168.473047,22.3632812 L169.123438,22.3632812 C169.017968,24.3671975 168.033603,25.3691406 166.170313,25.3691406 C165.373434,25.3691406 164.743557,25.1582052 164.280664,24.7363281 C163.817771,24.314451 163.516016,23.6875042 163.375391,22.8554688 C162.20351,23.6875042 161.134185,24.314451 160.167383,24.7363281 C159.200581,25.1582052 158.336332,25.3691406 157.574609,25.3691406 C156.601948,25.3691406 155.764066,25.0878934 155.060938,24.5253906 C154.357809,23.9628878 154.00625,23.2187546 154.00625,22.2929688 C154.00625,21.0859315 154.595111,20.0312545 155.772852,19.1289062 C156.950592,18.226558 158.576552,17.3476605 160.650781,16.4921875 L163.375391,15.3847656 L163.375391,14.6816406 C163.375391,13.6855419 163.310938,12.964846 163.182031,12.5195312 C163.053124,12.0742165 162.719143,11.675783 162.180078,11.3242188 C161.641013,10.9726545 160.932036,10.796875 160.053125,10.796875 C158.295304,10.796875 157.316798,11.3828066 157.117578,12.5546875 C156.930077,13.750006 156.437895,14.3476562 155.641016,14.3476562 C154.926168,14.3476562 154.56875,14.0078159 154.56875,13.328125 C154.56875,12.6601529 155.043355,11.9423867 155.992578,11.1748047 C156.941802,10.4072227 158.418349,10.0234375 160.422266,10.0234375 C161.910554,10.0234375 163.06484,10.2578102 163.885156,10.7265625 C164.705473,11.1953148 165.24746,11.7285126 165.511133,12.3261719 C165.774806,12.9238311 165.906641,13.8378845 165.906641,15.0683594 L165.906641,20.8867188 C165.906641,22.2461005 165.976952,23.1191387 166.117578,23.5058594 C166.258204,23.8925801 166.562888,24.0859375 167.031641,24.0859375 C167.805082,24.0859375 168.285546,23.5117245 168.473047,22.3632812 Z M163.375391,16.2109375 L161.459375,16.984375 C158.435922,18.2148499 156.924219,19.7617094 156.924219,21.625 C156.924219,22.3632849 157.117576,22.9580056 157.504297,23.4091797 C157.891018,23.8603538 158.394919,24.0859375 159.016016,24.0859375 C159.5668,24.0859375 160.205465,23.9042987 160.932031,23.5410156 C161.658597,23.1777326 162.473042,22.6328161 163.375391,21.90625 L163.375391,16.2109375 Z M178.071875,33.4023438 L178.071875,32.59375 L182.15,32.59375 C182.853129,32.59375 183.339452,32.5000009 183.608984,32.3125 C183.878517,32.1249991 184.045507,31.8642595 184.109961,31.5302734 C184.174414,31.1962874 184.206641,30.419928 184.206641,29.2011719 L184.206641,5.34765625 C184.206641,4.17577539 184.177344,3.41699392 184.11875,3.07128906 C184.060156,2.72558421 183.899025,2.45605565 183.635352,2.26269531 C183.371678,2.06933497 182.876566,1.97265625 182.15,1.97265625 L178.071875,1.97265625 L178.071875,1.1640625 L186.439063,1.1640625 L186.439063,33.4023438 L178.071875,33.4023438 Z M220.357813,10.6035156 L220.129297,11.3769531 L217.053125,11.3769531 L214.328516,21.6601562 C213.086322,26.3125233 211.726961,29.4355389 210.250391,31.0292969 C208.773821,32.6230548 207.15079,33.4199219 205.38125,33.4199219 C204.39687,33.4199219 203.509184,33.1914085 202.718164,32.734375 C201.927144,32.2773415 201.531641,31.7089878 201.531641,31.0292969 C201.531641,30.6425762 201.654686,30.3261731 201.900781,30.0800781 C202.146876,29.8339831 202.433983,29.7109375 202.762109,29.7109375 C203.14883,29.7109375 203.459374,29.8486314 203.69375,30.1240234 C203.928126,30.3994154 204.045313,30.6953109 204.045313,31.0117188 C204.045313,31.0937504 204.027735,31.2402333 203.992578,31.4511719 L203.957422,31.75 C203.957422,31.9726574 204.098045,32.1777334 204.379297,32.3652344 C204.660548,32.5527353 205.000389,32.6464844 205.398828,32.6464844 C206.805085,32.6464844 207.988667,31.8964919 208.949609,30.3964844 C209.910552,28.8964769 211.000385,25.8906476 212.219141,21.3789062 L214.908594,11.3769531 L211.445703,11.3769531 L211.674219,10.6035156 L215.154688,10.6035156 C215.189844,10.4628899 215.283593,10.1230496 215.435938,9.58398438 C217.017977,3.7480177 219.578498,0.830078125 223.117578,0.830078125 C224.125396,0.830078125 224.895896,1.05273215 225.429102,1.49804688 C225.962307,1.9433616 226.228906,2.38281033 226.228906,2.81640625 C226.228906,3.43750311 225.93594,3.74804688 225.35,3.74804688 C224.881248,3.74804688 224.383206,3.34375404 223.855859,2.53515625 C223.480858,1.94921582 223.02969,1.65625 222.502344,1.65625 C221.705465,1.65625 220.943754,2.02245728 220.217188,2.75488281 C219.490621,3.48730835 218.687895,5.47654627 217.808984,8.72265625 L217.299219,10.6035156 L220.357813,10.6035156 Z M220.332031,14.8574219 L219.558594,14.8574219 C220.050784,13.5449153 220.668942,12.4257859 221.413086,11.5 C222.15723,10.5742141 222.892574,10.1113281 223.619141,10.1113281 C224.123049,10.1113281 224.498046,10.3134745 224.744141,10.7177734 C224.990236,11.1220723 225.113281,11.7343709 225.113281,12.5546875 C225.113281,13.5742238 224.849612,15.0273343 224.322266,16.9140625 C224.392578,16.7968744 224.585936,16.3750036 224.902344,15.6484375 C225.769536,13.6913965 226.531247,12.2793012 227.1875,11.4121094 C227.843753,10.5449175 228.499997,10.1113281 229.15625,10.1113281 C229.566408,10.1113281 229.89453,10.2402331 230.140625,10.4980469 C230.38672,10.7558607 230.509766,11.0664044 230.509766,11.4296875 C230.509766,11.7812518 230.407228,12.0683583 230.202148,12.2910156 C229.997069,12.513673 229.753908,12.625 229.472656,12.625 C229.156248,12.625 228.833986,12.4316426 228.505859,12.0449219 C228.376952,11.8925774 228.248048,11.8164062 228.119141,11.8164062 C227.5332,11.8164062 226.630865,13.2255718 225.412109,16.0439453 C224.193353,18.8623188 223.208988,21.5136595 222.458984,23.9980469 L222.072266,25.2636719 L219.962891,25.2636719 L222.757813,15.9472656 C223.285159,14.1660067 223.548828,12.9589875 223.548828,12.3261719 C223.548828,11.9863264 223.504883,11.7343758 223.416992,11.5703125 C223.329101,11.4062492 223.197267,11.3242188 223.021484,11.3242188 C222.634764,11.3242188 222.15137,11.7402302 221.571289,12.5722656 C220.991208,13.404301 220.578126,14.1660122 220.332031,14.8574219 Z M230.167578,20.3769531 C230.167578,18.9706961 230.4957,17.4384849 231.151953,15.7802734 C231.808206,14.122062 232.745697,12.7773489 233.964453,11.7460938 C235.183209,10.7148386 236.366791,10.1992188 237.515234,10.1992188 C238.558208,10.1992188 239.416598,10.6415971 240.09043,11.5263672 C240.764261,12.4111372 241.101172,13.6093674 241.101172,15.1210938 C241.101172,16.9492279 240.726176,18.6835855 239.976172,20.3242188 C239.226168,21.964852 238.285748,23.2216753 237.154883,24.0947266 C236.024018,24.9677778 234.913677,25.4042969 233.823828,25.4042969 C232.851167,25.4042969 231.998636,25.0293006 231.266211,24.2792969 C230.533785,23.5292931 230.167578,22.2285249 230.167578,20.3769531 Z M232.048438,22.3984375 C232.048438,23.0312532 232.212498,23.5703103 232.540625,24.015625 C232.868752,24.4609397 233.319919,24.6835938 233.894141,24.6835938 C235.464461,24.6835938 236.75644,23.1953274 237.770117,20.21875 C238.783794,17.2421726 239.290625,14.9687579 239.290625,13.3984375 C239.290625,12.5898397 239.135353,11.9834005 238.824805,11.5791016 C238.514256,11.1748027 238.048441,10.9726562 237.427344,10.9726562 C235.962493,10.9726562 234.69981,12.3525253 233.639258,15.1123047 C232.578706,17.8720841 232.048438,20.3007708 232.048438,22.3984375 Z M263.891797,21.6777344 L264.647656,21.6777344 C264.143747,22.7675836 263.490434,23.6757776 262.687695,24.4023438 C261.884957,25.1289099 261.102738,25.4921875 260.341016,25.4921875 C259.837107,25.4921875 259.388869,25.3105487 258.996289,24.9472656 C258.603709,24.5839826 258.407422,24.0683627 258.407422,23.4003906 C258.407422,22.8027314 258.694528,21.666024 259.26875,19.9902344 L260.921094,15.2089844 C261.413284,13.7792897 261.659375,12.8828143 261.659375,12.5195312 C261.659375,12.1328106 261.580274,11.8427744 261.42207,11.6494141 C261.263866,11.4560537 261.026564,11.359375 260.710156,11.359375 C259.702339,11.359375 258.515827,12.1972572 257.150586,13.8730469 C255.785345,15.5488365 254.364461,18.8300537 252.887891,23.7167969 L252.413281,25.2460938 L250.321484,25.2460938 L253.186719,15.8242188 C253.678909,14.1835855 253.925,13.0761747 253.925,12.5019531 C253.925,12.1503889 253.857618,11.8867196 253.722852,11.7109375 C253.588085,11.5351554 253.38008,11.4472656 253.098828,11.4472656 C252.278512,11.4472656 251.171101,12.3115148 249.776563,14.0400391 C248.382024,15.7685633 246.993366,18.9296645 245.610547,23.5234375 L245.083203,25.2460938 L242.973828,25.2460938 L246.190625,14.6992188 C246.624221,13.2578053 246.841016,12.4082044 246.841016,12.1503906 C246.841016,11.9628897 246.808789,11.8222661 246.744336,11.7285156 C246.679882,11.6347652 246.577344,11.5878906 246.436719,11.5878906 C246.13203,11.5878906 245.724807,11.8339819 245.215039,12.3261719 C244.705271,12.8183618 244.19844,13.5214798 243.694531,14.4355469 L242.903516,14.4355469 C243.466018,13.2519472 244.157418,12.276371 244.977734,11.5087891 C245.798051,10.7412071 246.524606,10.3574219 247.157422,10.3574219 C247.614455,10.3574219 247.974803,10.5097641 248.238477,10.8144531 C248.50215,11.1191421 248.633984,11.5292943 248.633984,12.0449219 C248.633984,12.9003949 248.276566,14.3476461 247.561719,16.3867188 C248.346879,14.7343667 249.325385,13.3105529 250.497266,12.1152344 C251.669146,10.9199159 252.729683,10.3222656 253.678906,10.3222656 C254.358597,10.3222656 254.865428,10.5185527 255.199414,10.9111328 C255.5334,11.3037129 255.700391,11.8925742 255.700391,12.6777344 C255.700391,13.6386767 255.460159,14.7988213 254.979688,16.1582031 C255.975786,14.1191304 257.030463,12.6367234 258.14375,11.7109375 C259.257037,10.7851516 260.264839,10.3222656 261.167188,10.3222656 C261.846878,10.3222656 262.415232,10.5478493 262.872266,10.9990234 C263.329299,11.4501976 263.557813,12.0624961 263.557813,12.8359375 C263.557813,13.3164087 263.519727,13.7119125 263.443555,14.0224609 C263.367382,14.3330094 263.083206,15.2265551 262.591016,16.703125 L261.219922,20.6582031 C260.657419,22.2636799 260.376172,23.2539044 260.376172,23.6289062 C260.376172,23.88672 260.431835,24.0830071 260.543164,24.2177734 C260.654493,24.3525397 260.815624,24.4199219 261.026563,24.4199219 C261.436721,24.4199219 261.882029,24.1914085 262.3625,23.734375 C262.842971,23.2773415 263.352732,22.5918014 263.891797,21.6777344 Z M282.051172,20.78125 L282.824609,20.78125 C281.629291,23.9218907 280.09415,25.4921875 278.219141,25.4921875 C277.574606,25.4921875 277.058986,25.2783225 276.672266,24.8505859 C276.285545,24.4228494 276.092188,23.886722 276.092188,23.2421875 C276.092188,22.6093718 276.473043,21.0449344 277.234766,18.5488281 L281.348047,4.97851562 C281.699611,3.83007238 281.875391,3.16211031 281.875391,2.97460938 C281.875391,2.69335797 281.79629,2.49414121 281.638086,2.37695312 C281.479882,2.25976504 281.084378,2.20117188 280.451563,2.20117188 L279.766016,2.20117188 L279.994531,1.46289062 C281.928135,1.4277342 283.351949,1.21679881 284.266016,0.830078125 L284.705469,0.830078125 L279.045313,19.4628906 C278.963281,19.7558608 278.793361,20.2890586 278.535547,21.0625 C278.195701,22.0820363 278.025781,22.8554661 278.025781,23.3828125 C278.025781,23.7343768 278.093163,23.998046 278.22793,24.1738281 C278.362696,24.3496103 278.564842,24.4375 278.834375,24.4375 C279.232814,24.4375 279.730856,24.1621121 280.328516,23.6113281 C280.926175,23.0605441 281.500388,22.1171942 282.051172,20.78125 Z M295.507812,10.375 L297.617188,10.375 L294.488281,20.6757812 C294.031248,22.1640699 293.802734,23.0664047 293.802734,23.3828125 C293.802734,23.6171887 293.855468,23.7958978 293.960938,23.9189453 C294.066407,24.0419928 294.224608,24.1035156 294.435547,24.1035156 C295.244145,24.1035156 296.175776,23.1777436 297.230469,21.3261719 L297.96875,21.3261719 C297.511716,22.3808646 296.858403,23.3388629 296.008789,24.2001953 C295.159175,25.0615277 294.376957,25.4921875 293.662109,25.4921875 C293.111325,25.4921875 292.689455,25.2871114 292.396484,24.8769531 C292.103514,24.4667948 291.957031,23.9628936 291.957031,23.3652344 C291.957031,22.8847632 292.074218,22.2578164 292.308594,21.484375 C291.781247,22.3867233 291.016607,23.280269 290.014648,24.1650391 C289.01269,25.0498091 288.07227,25.4921875 287.193359,25.4921875 C286.373043,25.4921875 285.666995,25.1435582 285.075195,24.4462891 C284.483395,23.74902 284.1875,22.8085997 284.1875,21.625 C284.1875,20.031242 284.644527,18.3232513 285.558594,16.5009766 C286.472661,14.6787018 287.665032,13.1582092 289.135742,11.9394531 C290.606453,10.720697 291.863276,10.1113281 292.90625,10.1113281 C293.515628,10.1113281 293.999022,10.257811 294.356445,10.5507812 C294.713869,10.8437515 294.951171,11.2832002 295.068359,11.8691406 L295.507812,10.375 Z M286.314453,22.1523438 C286.314453,22.9257851 286.431639,23.5087871 286.666016,23.9013672 C286.900392,24.2939473 287.251951,24.4902344 287.720703,24.4902344 C288.494144,24.4902344 289.422846,23.9218807 290.506836,22.7851562 C291.590826,21.6484318 292.531246,19.9082148 293.328125,17.5644531 C294.125004,15.2206914 294.523438,13.6269573 294.523438,12.7832031 C294.523438,12.2910132 294.397462,11.872072 294.145508,11.5263672 C293.893553,11.1806623 293.533205,11.0078125 293.064453,11.0078125 C291.634758,11.0078125 290.152351,12.4199078 288.617188,15.2441406 C287.082024,18.0683735 286.314453,20.3710848 286.314453,22.1523438 Z M308.24375,10.6035156 L307.997656,11.3769531 L305.360937,11.3769531 L303.040625,19.0585938 C302.267184,21.5781376 301.880469,23.0429667 301.880469,23.453125 C301.880469,23.7343764 301.941992,23.9482415 302.065039,24.0947266 C302.188087,24.2412117 302.366796,24.3144531 302.601172,24.3144531 C303.023049,24.3144531 303.573825,23.9160196 304.253516,23.1191406 C304.933207,22.3222616 305.542575,21.3203185 306.081641,20.1132812 L306.855078,20.1132812 C306.140231,21.8593837 305.322856,23.1923782 304.40293,24.1123047 C303.483003,25.0322312 302.642191,25.4921875 301.880469,25.4921875 C301.28281,25.4921875 300.805275,25.2812521 300.447852,24.859375 C300.090428,24.4374979 299.911719,23.9043001 299.911719,23.2597656 C299.911719,22.7089816 300.274996,21.2441525 301.001562,18.8652344 L303.269141,11.3769531 L300.843359,11.3769531 L301.089453,10.6035156 L303.497656,10.6035156 L305.114844,5.27734375 L307.224219,5.27734375 L305.607031,10.6035156 L308.24375,10.6035156 Z M316.075391,20.5175781 L316.919141,20.5175781 C315.430852,23.834001 313.520715,25.4921875 311.188672,25.4921875 C310.22773,25.4921875 309.445511,25.1552768 308.841992,24.4814453 C308.238474,23.8076138 307.936719,22.8964901 307.936719,21.7480469 C307.936719,20.2949146 308.326363,18.654306 309.105664,16.8261719 C309.884965,14.9980377 310.992376,13.4218816 312.42793,12.0976562 C313.863484,10.7734309 315.114448,10.1113281 316.180859,10.1113281 C316.837113,10.1113281 317.335155,10.3193339 317.675,10.7353516 C318.014845,11.1513693 318.184766,11.6699188 318.184766,12.2910156 C318.184766,13.556647 317.551959,14.7724551 316.286328,15.9384766 C315.020697,17.104498 313.122278,18.2265571 310.591016,19.3046875 C310.262889,20.3242238 310.098828,21.2910111 310.098828,22.2050781 C310.098828,22.9550819 310.245311,23.5175762 310.538281,23.8925781 C310.831251,24.26758 311.264841,24.4550781 311.839062,24.4550781 C313.444539,24.4550781 314.856635,23.1425913 316.075391,20.5175781 Z M310.854687,18.4082031 C312.366414,17.7285122 313.725775,16.7910216 314.932812,15.5957031 C316.13985,14.4003846 316.743359,13.3164111 316.743359,12.34375 C316.743359,11.8984353 316.65254,11.5673839 316.470898,11.3505859 C316.289257,11.133788 316.016799,11.0253906 315.653516,11.0253906 C314.950387,11.0253906 314.121294,11.708001 313.166211,13.0732422 C312.211128,14.4384834 311.440628,16.2167859 310.854687,18.4082031 Z M319.811328,14.8574219 L319.037891,14.8574219 C319.530081,13.5449153 320.148238,12.4257859 320.892383,11.5 C321.636527,10.5742141 322.371871,10.1113281 323.098438,10.1113281 C323.602346,10.1113281 323.977343,10.3134745 324.223438,10.7177734 C324.469532,11.1220723 324.592578,11.7343709 324.592578,12.5546875 C324.592578,13.5742238 324.328909,15.0273343 323.801563,16.9140625 C323.871875,16.7968744 324.065233,16.3750036 324.381641,15.6484375 C325.248832,13.6913965 326.010544,12.2793012 326.666797,11.4121094 C327.32305,10.5449175 327.979294,10.1113281 328.635547,10.1113281 C329.045705,10.1113281 329.373827,10.2402331 329.619922,10.4980469 C329.866017,10.7558607 329.989063,11.0664044 329.989063,11.4296875 C329.989063,11.7812518 329.886524,12.0683583 329.681445,12.2910156 C329.476366,12.513673 329.233205,12.625 328.951953,12.625 C328.635545,12.625 328.313283,12.4316426 327.985156,12.0449219 C327.856249,11.8925774 327.727344,11.8164062 327.598438,11.8164062 C327.012497,11.8164062 326.110162,13.2255718 324.891406,16.0439453 C323.67265,18.8623188 322.688285,21.5136595 321.938281,23.9980469 L321.551563,25.2636719 L319.442188,25.2636719 L322.237109,15.9472656 C322.764456,14.1660067 323.028125,12.9589875 323.028125,12.3261719 C323.028125,11.9863264 322.98418,11.7343758 322.896289,11.5703125 C322.808398,11.4062492 322.676563,11.3242188 322.500781,11.3242188 C322.114061,11.3242188 321.630667,11.7402302 321.050586,12.5722656 C320.470505,13.404301 320.057423,14.1660122 319.811328,14.8574219 Z" id="[-Ephemera-]-from-la" fill="#000000"></path>
    </g>
</svg>