
<svg width="343px" height="35px" viewBox="0 0 343 35" version="1.1" xmlns="http://www.w3.org/2000/svg" xmlns:xlink="http://www.w3.org/1999/xlink">
    <g id="Page-1" stroke="none" stroke-width="1" fill="none" fill-rule="evenodd">
        <path d="M9.06054688,34.4023438 L0.693359375,34.4023438 L0.693359375,2.1640625 L9.06054688,2.1640625 L9.06054688,2.97265625 L4.98242188,2.97265625 C4.27929336,2.97265625 3.7929701,3.06347565 3.5234375,3.24511719 C3.2539049,3.42675872 3.08691438,3.68456864 3.02246094,4.01855469 C2.95800749,4.35254073 2.92578125,5.12890016 2.92578125,6.34765625 L2.92578125,30.2011719 C2.92578125,31.3847715 2.95507783,32.1494123 3.01367188,32.4951172 C3.07226592,32.840822 3.23339712,33.1103506 3.49707031,33.3037109 C3.76074351,33.4970713 4.25585574,33.59375 4.98242188,33.59375 L9.06054688,33.59375 L9.06054688,34.4023438 Z M38.2238281,18.5820312 L39.0675781,18.5820312 L38.5578125,26 L18.8175781,26 L18.8175781,25.1914062 L19.3097656,25.1914062 C20.4933653,25.1914062 21.2580061,25.0332047 21.6037109,24.7167969 C21.9494158,24.400389 22.1691402,23.9990259 22.2628906,23.5126953 C22.3566411,23.0263648 22.4035156,21.7871193 22.4035156,19.7949219 L22.4035156,8.10546875 C22.4035156,6.28905342 22.3537114,5.09375287 22.2541016,4.51953125 C22.1544917,3.94530963 21.9259783,3.54394646 21.5685547,3.31542969 C21.211131,3.08691292 20.4582089,2.97265625 19.3097656,2.97265625 L19.3097656,2.1640625 L36.3429688,2.1640625 L36.9054688,8.10546875 L36.0792969,8.10546875 C35.704295,6.44139793 35.2443387,5.26074567 34.6994141,4.56347656 C34.1544895,3.86620745 33.507035,3.42675872 32.7570313,3.24511719 C32.0070275,3.06347565 30.8000083,2.97265625 29.1359375,2.97265625 L25.83125,2.97265625 L25.83125,12.9746094 L28.3625,12.9746094 C29.5226621,12.9746094 30.3341774,12.875001 30.7970703,12.6757812 C31.2599633,12.4765615 31.5646477,12.1748067 31.7111328,11.7705078 C31.8576179,11.3662089 31.9308594,10.5781309 31.9308594,9.40625 L32.7570313,9.40625 L32.7570313,17.5625 L31.9308594,17.5625 C31.9308594,16.2382746 31.8195324,15.3505882 31.596875,14.8994141 C31.3742176,14.4482399 31.0490256,14.1552741 30.6212891,14.0205078 C30.1935525,13.8857415 29.469927,13.8183594 28.4503906,13.8183594 L25.83125,13.8183594 L25.83125,19.4609375 C25.83125,22.2851704 26.0128888,23.9462866 26.3761719,24.4443359 C26.7394549,24.9423853 27.7179608,25.1914062 29.3117188,25.1914062 L31.0871094,25.1914062 C32.3410219,25.1914062 33.3722616,25.030275 34.1808594,24.7080078 C34.9894572,24.3857406 35.7599573,23.7236378 36.4923828,22.7216797 C37.2248083,21.7197216 37.801951,20.3398525 38.2238281,18.5820312 Z M44.7722656,11.0234375 L45.246875,11.0234375 C45.4460947,11.6796908 45.5457031,12.4706985 45.5457031,13.3964844 C46.2957069,12.5996054 47.1013629,12.0048848 47.9626953,11.6123047 C48.8240277,11.2197246 49.7351514,11.0234375 50.6960937,11.0234375 C52.6882912,11.0234375 54.3464778,11.7236258 55.6707031,13.1240234 C56.9949285,14.5244211 57.6570312,16.3730354 57.6570312,18.6699219 C57.6570312,20.9199331 56.9919988,22.8007737 55.6619141,24.3125 C54.3318293,25.8242263 52.5828233,26.5800781 50.4148437,26.5800781 C49.5242143,26.5800781 48.6716838,26.401369 47.8572266,26.0439453 C47.0427694,25.6865217 46.2722693,25.1562535 45.5457031,24.453125 L45.5457031,29.9199219 C45.5457031,31.5839927 45.5779294,32.5976544 45.6423828,32.9609375 C45.7068363,33.3242206 45.8914047,33.5966788 46.1960937,33.7783203 C46.5007828,33.9599618 47.0691365,34.0507812 47.9011719,34.0507812 L47.9011719,34.859375 L40.3777344,34.859375 L40.3777344,34.0507812 L40.9050781,34.0507812 C41.7371135,34.0507812 42.2791003,33.9306653 42.5310547,33.6904297 C42.7830091,33.4501941 42.929492,33.1630876 42.9705078,32.8291016 C43.0115236,32.4951155 43.0320312,31.5253987 43.0320312,29.9199219 L43.0320312,16.8417969 C43.0320312,15.3066329 43.0115236,14.3398457 42.9705078,13.9414062 C42.929492,13.5429668 42.7625015,13.2382823 42.4695312,13.0273438 C42.176561,12.8164052 41.6550819,12.7109375 40.9050781,12.7109375 L40.3777344,12.7109375 L40.3777344,11.9023438 C41.5378964,11.7851557 43.0027255,11.4921898 44.7722656,11.0234375 Z M45.5457031,23.2929688 C46.1785188,24.0664101 46.8494105,24.6494121 47.5583984,25.0419922 C48.2673864,25.4345723 49.0144492,25.6308594 49.7996094,25.6308594 C51.1238347,25.6308594 52.2781201,25.0625057 53.2625,23.9257812 C54.2468799,22.7890568 54.7390625,20.978528 54.7390625,18.4941406 C54.7390625,16.3378798 54.2644579,14.7265678 53.3152344,13.6601562 C52.3660109,12.5937447 51.2351628,12.0605469 49.9226562,12.0605469 C49.1140585,12.0605469 48.346488,12.2656229 47.6199219,12.6757812 C46.8933557,13.0859396 46.2019564,13.7070271 45.5457031,14.5390625 L45.5457031,23.2929688 Z M65.1019531,13.9765625 C65.8050816,12.9921826 66.5931597,12.2539087 67.4662109,11.7617188 C68.3392622,11.2695288 69.2972604,11.0234375 70.3402344,11.0234375 C71.523834,11.0234375 72.5052695,11.2695288 73.2845703,11.7617188 C74.0638711,12.2539087 74.570702,12.860348 74.8050781,13.5810547 C75.0394543,14.3017614 75.1566406,15.470695 75.1566406,17.0878906 L75.1566406,21.0605469 C75.1566406,22.7480553 75.1888669,23.7734357 75.2533203,24.1367188 C75.3177738,24.5000018 75.5082015,24.7666007 75.8246094,24.9365234 C76.1410172,25.1064462 76.7269488,25.1914062 77.5824219,25.1914062 L77.5824219,26 L70.146875,26 L70.146875,25.1914062 L70.4808594,25.1914062 C71.3363324,25.1914062 71.8900378,25.0683606 72.1419922,24.8222656 C72.3939466,24.5761706 72.5404295,24.2861345 72.5814453,23.9521484 C72.6224611,23.6181624 72.6429688,22.6543048 72.6429688,21.0605469 L72.6429688,16.7363281 C72.6429688,15.5410096 72.572657,14.6562529 72.4320313,14.0820312 C72.2914055,13.5078096 71.9603542,13.033205 71.4388672,12.6582031 C70.9173802,12.2832012 70.2640664,12.0957031 69.4789063,12.0957031 C68.5648392,12.0957031 67.7445349,12.362302 67.0179688,12.8955078 C66.2914026,13.4287136 65.6527371,14.2285103 65.1019531,15.2949219 L65.1019531,21.0605469 C65.1019531,22.6777425 65.12832,23.6738262 65.1810547,24.0488281 C65.2337893,24.42383 65.4124985,24.7080068 65.7171875,24.9013672 C66.0218765,25.0947275 66.5785116,25.1914062 67.3871094,25.1914062 L67.3871094,26 L60.0746094,26 L60.0746094,25.1914062 L60.44375,25.1914062 C61.2875042,25.1914062 61.8353503,25.0712903 62.0873047,24.8310547 C62.3392591,24.5908191 62.485742,24.3037126 62.5267578,23.9697266 C62.5677736,23.6357405 62.5882813,22.6660237 62.5882813,21.0605469 L62.5882813,6.71679688 C62.5882813,5.26366461 62.4505873,4.34375193 62.1751953,3.95703125 C61.8998033,3.57031057 61.2406302,3.37695312 60.1976563,3.37695312 L60.1976563,2.56835938 C62.0140716,2.56835938 63.5257752,2.32226809 64.7328125,1.83007812 L65.1019531,1.83007812 L65.1019531,13.9765625 Z M92.8847656,16.4726562 L82.8476562,16.4726562 C82.800781,17.164066 82.7773438,17.6796858 82.7773438,18.0195312 C82.7773438,20.5507939 83.1728476,22.4521421 83.9638672,23.7236328 C84.7548868,24.9951235 85.935539,25.6308594 87.5058594,25.6308594 C89.6386825,25.6308594 91.1503862,24.6757908 92.0410156,22.765625 L92.8847656,22.765625 C92.5097637,23.9609435 91.7656306,24.8955044 90.6523438,25.5693359 C89.5390569,26.2431674 88.3261784,26.5800781 87.0136719,26.5800781 C85.7949158,26.5800781 84.6435601,26.272464 83.5595703,25.6572266 C82.4755805,25.0419891 81.5878941,24.1718806 80.8964844,23.046875 C80.2050747,21.9218694 79.859375,20.5566487 79.859375,18.9511719 C79.859375,16.677723 80.5273371,14.7880935 81.8632812,13.2822266 C83.1992254,11.7763597 84.8691306,11.0234375 86.8730469,11.0234375 C88.7597751,11.0234375 90.2187448,11.5976505 91.25,12.7460938 C92.2812552,13.894537 92.8261716,15.1367121 92.8847656,16.4726562 Z M89.8085938,15.7695313 C89.8437502,15.4999987 89.8613281,15.2597667 89.8613281,15.0488281 C89.8613281,14.017573 89.5595733,13.2177763 88.9560547,12.6494141 C88.352536,12.0810518 87.6113325,11.796875 86.7324219,11.796875 C84.5995987,11.796875 83.3281271,13.1210805 82.9179688,15.7695313 L89.8085938,15.7695313 Z M99.4507812,11.0234375 L99.6265625,11.0234375 C99.9664079,11.8085977 100.136328,12.8164001 100.136328,14.046875 C100.921488,13.0390575 101.76816,12.2832056 102.676367,11.7792969 C103.584575,11.2753881 104.560151,11.0234375 105.603125,11.0234375 C106.786725,11.0234375 107.747653,11.2929661 108.485937,11.8320312 C109.224222,12.3710964 109.739842,13.1796821 110.032812,14.2578125 C110.923442,13.1796821 111.837495,12.3710964 112.775,11.8320312 C113.712505,11.2929661 114.667573,11.0234375 115.640234,11.0234375 C116.753521,11.0234375 117.696871,11.2812474 118.470312,11.796875 C119.243754,12.3125026 119.712499,12.8984342 119.876562,13.5546875 C120.040626,14.2109408 120.122656,15.2714771 120.122656,16.7363281 L120.122656,21.0605469 C120.122656,22.7363365 120.154882,23.7558576 120.219336,24.1191406 C120.283789,24.4824237 120.471288,24.7519522 120.781836,24.9277344 C121.092384,25.1035165 121.669527,25.1914062 122.513281,25.1914062 L122.513281,26 L115.323828,26 L115.323828,25.1914062 C116.085551,25.1914062 116.621678,25.1064462 116.932227,24.9365234 C117.242775,24.7666007 117.433203,24.5087908 117.503516,24.1630859 C117.573828,23.8173811 117.608984,22.7832117 117.608984,21.0605469 L117.608984,16.2617188 C117.608984,15.2890576 117.553321,14.5566431 117.441992,14.0644531 C117.330664,13.5722632 117.040627,13.1503924 116.571875,12.7988281 C116.103123,12.4472639 115.493754,12.2714844 114.74375,12.2714844 C113.982027,12.2714844 113.217387,12.5292943 112.449805,13.0449219 C111.682223,13.5605495 110.911723,14.3398385 110.138281,15.3828125 L110.138281,21.0605469 C110.138281,22.5957108 110.158789,23.5595683 110.199805,23.9521484 C110.240821,24.3447285 110.404881,24.649413 110.691992,24.8662109 C110.979103,25.0830089 111.491793,25.1914062 112.230078,25.1914062 L112.230078,26 L105.269141,26 L105.269141,25.1914062 C106.054301,25.1914062 106.602147,25.1093758 106.912695,24.9453125 C107.223244,24.7812492 107.416601,24.5292986 107.492773,24.1894531 C107.568946,23.8496077 107.607031,22.8066494 107.607031,21.0605469 L107.607031,17.0703125 C107.607031,15.8046812 107.557227,14.8876982 107.457617,14.3193359 C107.358007,13.7509737 107.056253,13.2646505 106.552344,12.8603516 C106.048435,12.4560527 105.421488,12.2539062 104.671484,12.2539062 C103.944918,12.2539062 103.203715,12.4882789 102.447852,12.9570312 C101.691988,13.4257836 100.921488,14.1289016 100.136328,15.0664062 L100.136328,21.0605469 C100.136328,22.642586 100.159765,23.6269512 100.206641,24.0136719 C100.253516,24.4003926 100.429295,24.6933584 100.733984,24.8925781 C101.038673,25.0917979 101.58359,25.1914062 102.36875,25.1914062 L102.36875,26 L95.3199219,26 L95.3199219,25.1914062 C96.0933632,25.1914062 96.63535,25.1064462 96.9458984,24.9365234 C97.2564469,24.7666007 97.4468746,24.5117204 97.5171875,24.171875 C97.5875004,23.8320296 97.6226562,22.7949305 97.6226562,21.0605469 L97.6226562,16.7539062 C97.6226562,15.113273 97.5962893,14.1084003 97.5435547,13.7392578 C97.49082,13.3701153 97.3091812,13.0917978 96.9986328,12.9042969 C96.6880844,12.7167959 96.1285197,12.6230469 95.3199219,12.6230469 L95.3199219,11.8144531 C96.9839927,11.6503898 98.3609321,11.3867206 99.4507812,11.0234375 Z M137.815625,16.4726562 L127.778516,16.4726562 C127.73164,17.164066 127.708203,17.6796858 127.708203,18.0195312 C127.708203,20.5507939 128.103707,22.4521421 128.894727,23.7236328 C129.685746,24.9951235 130.866398,25.6308594 132.436719,25.6308594 C134.569542,25.6308594 136.081246,24.6757908 136.971875,22.765625 L137.815625,22.765625 C137.440623,23.9609435 136.69649,24.8955044 135.583203,25.5693359 C134.469916,26.2431674 133.257038,26.5800781 131.944531,26.5800781 C130.725775,26.5800781 129.574419,26.272464 128.49043,25.6572266 C127.40644,25.0419891 126.518753,24.1718806 125.827344,23.046875 C125.135934,21.9218694 124.790234,20.5566487 124.790234,18.9511719 C124.790234,16.677723 125.458196,14.7880935 126.794141,13.2822266 C128.130085,11.7763597 129.79999,11.0234375 131.803906,11.0234375 C133.690634,11.0234375 135.149604,11.5976505 136.180859,12.7460938 C137.212115,13.894537 137.757031,15.1367121 137.815625,16.4726562 Z M134.739453,15.7695313 C134.77461,15.4999987 134.792188,15.2597667 134.792188,15.0488281 C134.792188,14.017573 134.490433,13.2177763 133.886914,12.6494141 C133.283395,12.0810518 132.542192,11.796875 131.663281,11.796875 C129.530458,11.796875 128.258986,13.1210805 127.848828,15.7695313 L134.739453,15.7695313 Z M145.330859,14.6972656 C145.729299,13.6542917 146.376753,12.7812535 147.273242,12.078125 C148.169731,11.3749965 149.045699,11.0234375 149.901172,11.0234375 C150.674613,11.0234375 151.283982,11.2636695 151.729297,11.7441406 C152.174612,12.2246118 152.397266,12.7167944 152.397266,13.2207031 C152.397266,13.5605486 152.283009,13.8535144 152.054492,14.0996094 C151.825975,14.3457044 151.547658,14.46875 151.219531,14.46875 C150.633591,14.46875 150.188283,14.0351606 149.883594,13.1679688 C149.672655,12.5820283 149.356252,12.2890625 148.934375,12.2890625 C148.430466,12.2890625 147.826957,12.6318325 147.123828,13.3173828 C146.4207,14.0029331 145.969532,14.7148401 145.770313,15.453125 C145.571093,16.1914099 145.471484,17.2050717 145.471484,18.4941406 L145.471484,21.0605469 C145.471484,22.5957108 145.491992,23.562498 145.533008,23.9609375 C145.574024,24.359377 145.741014,24.6640614 146.033984,24.875 C146.326955,25.0859386 146.848434,25.1914062 147.598438,25.1914062 L148.090625,25.1914062 L148.090625,26 L140.444141,26 L140.444141,25.1914062 L140.813281,25.1914062 C141.51641,25.1914062 142.017381,25.0947275 142.316211,24.9013672 C142.615041,24.7080068 142.79375,24.4355486 142.852344,24.0839844 C142.910938,23.7324201 142.940234,22.7246177 142.940234,21.0605469 L142.940234,17 C142.940234,15.4531173 142.919727,14.4834004 142.878711,14.0908203 C142.837695,13.6982402 142.670705,13.3935558 142.377734,13.1767578 C142.084764,12.9599599 141.563285,12.8515625 140.813281,12.8515625 L140.444141,12.8515625 L140.444141,12.0605469 C141.545709,11.93164 142.9871,11.5859403 144.768359,11.0234375 C145.108205,11.9492234 145.295703,13.1738205 145.330859,14.6972656 Z M168.473047,23.3632812 L169.123438,23.3632812 C169.017968,25.3671975 168.033603,26.3691406 166.170313,26.3691406 C165.373434,26.3691406 164.743557,26.1582052 164.280664,25.7363281 C163.817771,25.314451 163.516016,24.6875042 163.375391,23.8554688 C162.20351,24.6875042 161.134185,25.314451 160.167383,25.7363281 C159.200581,26.1582052 158.336332,26.3691406 157.574609,26.3691406 C156.601948,26.3691406 155.764066,26.0878934 155.060938,25.5253906 C154.357809,24.9628878 154.00625,24.2187546 154.00625,23.2929688 C154.00625,22.0859315 154.595111,21.0312545 155.772852,20.1289062 C156.950592,19.226558 158.576552,18.3476605 160.650781,17.4921875 L163.375391,16.3847656 L163.375391,15.6816406 C163.375391,14.6855419 163.310938,13.964846 163.182031,13.5195312 C163.053124,13.0742165 162.719143,12.675783 162.180078,12.3242188 C161.641013,11.9726545 160.932036,11.796875 160.053125,11.796875 C158.295304,11.796875 157.316798,12.3828066 157.117578,13.5546875 C156.930077,14.750006 156.437895,15.3476562 155.641016,15.3476562 C154.926168,15.3476562 154.56875,15.0078159 154.56875,14.328125 C154.56875,13.6601529 155.043355,12.9423867 155.992578,12.1748047 C156.941802,11.4072227 158.418349,11.0234375 160.422266,11.0234375 C161.910554,11.0234375 163.06484,11.2578102 163.885156,11.7265625 C164.705473,12.1953148 165.24746,12.7285126 165.511133,13.3261719 C165.774806,13.9238311 165.906641,14.8378845 165.906641,16.0683594 L165.906641,21.8867188 C165.906641,23.2461005 165.976952,24.1191387 166.117578,24.5058594 C166.258204,24.8925801 166.562888,25.0859375 167.031641,25.0859375 C167.805082,25.0859375 168.285546,24.5117245 168.473047,23.3632812 Z M163.375391,17.2109375 L161.459375,17.984375 C158.435922,19.2148499 156.924219,20.7617094 156.924219,22.625 C156.924219,23.3632849 157.117576,23.9580056 157.504297,24.4091797 C157.891018,24.8603538 158.394919,25.0859375 159.016016,25.0859375 C159.5668,25.0859375 160.205465,24.9042987 160.932031,24.5410156 C161.658597,24.1777326 162.473042,23.6328161 163.375391,22.90625 L163.375391,17.2109375 Z M178.071875,34.4023438 L178.071875,33.59375 L182.15,33.59375 C182.853129,33.59375 183.339452,33.5000009 183.608984,33.3125 C183.878517,33.1249991 184.045507,32.8642595 184.109961,32.5302734 C184.174414,32.1962874 184.206641,31.419928 184.206641,30.2011719 L184.206641,6.34765625 C184.206641,5.17577539 184.177344,4.41699392 184.11875,4.07128906 C184.060156,3.72558421 183.899025,3.45605565 183.635352,3.26269531 C183.371678,3.06933497 182.876566,2.97265625 182.15,2.97265625 L178.071875,2.97265625 L178.071875,2.1640625 L186.439063,2.1640625 L186.439063,34.4023438 L178.071875,34.4023438 Z M210.229578,13.328 L210.337578,12.464 L213.541578,12.464 C213.661579,11.9359974 213.871577,11.276004 214.171578,10.484 C214.47158,9.69199604 214.837576,8.8460045 215.269578,7.946 C215.70158,7.0459955 216.187575,6.1460045 216.727578,5.246 C217.267581,4.3459955 217.837575,3.5360036 218.437578,2.816 C219.037581,2.0959964 219.649575,1.50800228 220.273578,1.052 C220.897581,0.59599772 221.509575,0.368 222.109578,0.368 C222.373579,0.368 222.595577,0.43399934 222.775578,0.566 C222.955579,0.69800066 223.099578,0.86599898 223.207578,1.07 C223.315579,1.27400102 223.387578,1.48999886 223.423578,1.718 C223.459578,1.94600114 223.477578,2.16799892 223.477578,2.384 C223.477578,2.67200144 223.381579,3.01999796 223.189578,3.428 C222.997577,3.83600204 222.769579,4.25599784 222.505578,4.688 C222.241577,5.12000216 221.96558,5.52799808 221.677578,5.912 C221.389577,6.29600192 221.149579,6.58399904 220.957578,6.776 L220.741578,6.74 C220.837579,6.18799724 220.945578,5.6420027 221.065578,5.102 C221.185579,4.5619973 221.245578,4.01600276 221.245578,3.464 C221.245578,3.17599856 221.185579,2.87600156 221.065578,2.564 C220.945578,2.25199844 220.72958,2.096 220.417578,2.096 C219.985576,2.096 219.60158,2.31799778 219.265578,2.762 C218.929576,3.20600222 218.62358,3.76999658 218.347578,4.454 C218.071577,5.13800342 217.831579,5.8999958 217.627578,6.74 C217.423577,7.5800042 217.237579,8.38399616 217.069578,9.152 C216.901577,9.92000384 216.751579,10.603997 216.619578,11.204 C216.487577,11.804003 216.361579,12.2239988 216.241578,12.464 L219.661578,12.464 L219.481578,13.328 L216.025578,13.328 C215.809577,14.0720037 215.52158,15.0919935 215.161578,16.388 C214.801576,17.6840065 214.363581,19.0879924 213.847578,20.6 C213.331576,22.1120076 212.755581,23.6419923 212.119578,25.19 C211.483575,26.7380077 210.781582,28.1419937 210.013578,29.402 C209.245574,30.6620063 208.429582,31.693996 207.565578,32.498 C206.701574,33.302004 205.789583,33.704 204.829578,33.704 C204.373576,33.704 203.98958,33.5900011 203.677578,33.362 C203.365577,33.1339989 203.209578,32.7920023 203.209578,32.336 C203.209578,31.9999983 203.329577,31.6880014 203.569578,31.4 C203.809579,31.1119986 204.109576,30.968 204.469578,30.968 C204.80558,30.968 205.063577,31.0519992 205.243578,31.22 C205.423579,31.3880008 205.567578,31.567999 205.675578,31.76 C205.783579,31.952001 205.879578,32.1319992 205.963578,32.3 C206.047579,32.4680008 206.161577,32.552 206.305578,32.552 C206.66558,32.552 206.971577,32.450001 207.223578,32.246 C207.475579,32.041999 207.691577,31.7840016 207.871578,31.472 C208.051579,31.1599984 208.207577,30.8300017 208.339578,30.482 C208.471579,30.1339983 208.597578,29.8160014 208.717578,29.528 C209.07758,28.6159954 209.461576,27.464007 209.869578,26.072 C210.27758,24.679993 210.685576,23.2280076 211.093578,21.716 C211.50158,20.2039924 211.891576,18.7040074 212.263578,17.216 C212.63558,15.7279926 212.977577,14.4320055 213.289578,13.328 L210.229578,13.328 Z M223.699578,12.464 L226.363578,12.464 L224.383578,17.684 L224.455578,17.756 C224.74358,17.2519975 225.079576,16.6760032 225.463578,16.028 C225.84758,15.3799968 226.285576,14.756003 226.777578,14.156 C227.269581,13.555997 227.803575,13.052002 228.379578,12.644 C228.955581,12.235998 229.579575,12.032 230.251578,12.032 C230.923581,12.032 231.469576,12.229998 231.889578,12.626 C232.30958,13.022002 232.519578,13.5679965 232.519578,14.264 C232.519578,14.5040012 232.489578,14.7679986 232.429578,15.056 C232.369578,15.3440014 232.267579,15.6019989 232.123578,15.83 C231.979577,16.0580011 231.799579,16.2499992 231.583578,16.406 C231.367577,16.5620008 231.10358,16.64 230.791578,16.64 C230.383576,16.64 230.053579,16.5200012 229.801578,16.28 C229.549577,16.0399988 229.423578,15.716002 229.423578,15.308 C229.423578,15.0919989 229.465578,14.888001 229.549578,14.696 C229.633579,14.503999 229.735578,14.312001 229.855578,14.12 C229.687577,13.9519992 229.483579,13.8500002 229.243578,13.814 C229.003577,13.7779998 228.775579,13.76 228.559578,13.76 C228.055576,13.76 227.551581,14.0059975 227.047578,14.498 C226.543576,14.9900025 226.05758,15.6199962 225.589578,16.388 C225.121576,17.1560038 224.68358,18.0139953 224.275578,18.962 C223.867576,19.9100047 223.48958,20.8399954 223.141578,21.752 C222.793576,22.6640046 222.499579,23.4979962 222.259578,24.254 C222.019577,25.0100038 221.839579,25.591998 221.719578,26 L219.271578,26 L223.699578,12.464 Z M245.053578,15.344 C245.053578,16.136004 244.91558,16.9639957 244.639578,17.828 C244.363577,18.6920043 243.979581,19.5379959 243.487578,20.366 C242.995576,21.1940041 242.425581,21.9739963 241.777578,22.706 C241.129575,23.4380037 240.433582,24.0799972 239.689578,24.632 C238.945574,25.1840028 238.171582,25.6219984 237.367578,25.946 C236.563574,26.2700016 235.777582,26.432 235.009578,26.432 C234.385575,26.432 233.87558,26.3480008 233.479578,26.18 C233.083576,26.0119992 232.765579,25.7840014 232.525578,25.496 C232.285577,25.2079986 232.123579,24.860002 232.039578,24.452 C231.955578,24.043998 231.913578,23.6000024 231.913578,23.12 C231.913578,22.327996 232.075577,21.5000043 232.399578,20.636 C232.72358,19.7719957 233.155575,18.9260041 233.695578,18.098 C234.235581,17.2699959 234.853575,16.4900037 235.549578,15.758 C236.245582,15.0259963 236.965574,14.3840028 237.709578,13.832 C238.453582,13.2799972 239.197574,12.8420016 239.941578,12.518 C240.685582,12.1939984 241.357575,12.032 241.957578,12.032 C242.581581,12.032 243.091576,12.1159992 243.487578,12.284 C243.88358,12.4520008 244.201577,12.6799986 244.441578,12.968 C244.681579,13.2560014 244.843578,13.603998 244.927578,14.012 C245.011579,14.420002 245.053578,14.8639976 245.053578,15.344 Z M240.229578,13.184 C239.677575,13.184 239.155581,13.381998 238.663578,13.778 C238.171576,14.174002 237.72158,14.6899968 237.313578,15.326 C236.905576,15.9620032 236.54558,16.6699961 236.233578,17.45 C235.921577,18.2300039 235.651579,19.0039962 235.423578,19.772 C235.195577,20.5400038 235.021579,21.2539967 234.901578,21.914 C234.781578,22.5740033 234.721578,23.107998 234.721578,23.516 C234.721578,24.8840068 235.393571,25.568 236.737578,25.568 C237.289581,25.568 237.811576,25.370002 238.303578,24.974 C238.795581,24.577998 239.245576,24.0620032 239.653578,23.426 C240.06158,22.7899968 240.421577,22.0820039 240.733578,21.302 C241.04558,20.5219961 241.315577,19.7480038 241.543578,18.98 C241.771579,18.2119962 241.945578,17.4980033 242.065578,16.838 C242.185579,16.1779967 242.245578,15.644002 242.245578,15.236 C242.245578,13.8679932 241.573585,13.184 240.229578,13.184 Z M250.675578,12.464 L253.339578,12.464 L250.999578,18.764 L251.071578,18.836 C251.551581,18.0919963 252.049576,17.318004 252.565578,16.514 C253.081581,15.709996 253.651575,14.9780033 254.275578,14.318 C254.899581,13.6579967 255.607574,13.1120022 256.399578,12.68 C257.191582,12.2479978 258.091573,12.032 259.099578,12.032 C259.699581,12.032 260.173576,12.2239981 260.521578,12.608 C260.86958,12.9920019 261.043578,13.483997 261.043578,14.084 C261.043578,14.3480013 260.959579,14.7439974 260.791578,15.272 C260.623577,15.8000026 260.425579,16.3579971 260.197578,16.946 C259.969577,17.5340029 259.741579,18.1039972 259.513578,18.656 C259.285577,19.2080028 259.123579,19.6279986 259.027578,19.916 L259.099578,19.988 C259.603581,19.1719959 260.119575,18.2960047 260.647578,17.36 C261.175581,16.4239953 261.763575,15.560004 262.411578,14.768 C263.059581,13.975996 263.803574,13.3220026 264.643578,12.806 C265.483582,12.2899974 266.467572,12.032 267.595578,12.032 C268.147581,12.032 268.645576,12.2239981 269.089578,12.608 C269.53358,12.9920019 269.755578,13.483997 269.755578,14.084 C269.755578,14.3480013 269.671579,14.7439974 269.503578,15.272 C269.335577,15.8000026 269.119579,16.3819968 268.855578,17.018 C268.591577,17.6540032 268.31558,18.3199965 268.027578,19.016 C267.739577,19.7120035 267.463579,20.359997 267.199578,20.96 C266.935577,21.560003 266.719579,22.0879977 266.551578,22.544 C266.383577,23.0000023 266.299578,23.3119992 266.299578,23.48 C266.299578,23.9840025 266.413577,24.3139992 266.641578,24.47 C266.869579,24.6260008 267.211576,24.704 267.667578,24.704 C268.02758,24.704 268.387576,24.5840012 268.747578,24.344 C269.10758,24.1039988 269.449577,23.8340015 269.773578,23.534 C270.09758,23.2339985 270.373577,22.9640012 270.601578,22.724 C270.829579,22.4839988 270.979578,22.364 271.051578,22.364 C271.099578,22.364 271.153578,22.3819998 271.213578,22.418 C271.273578,22.4540002 271.303578,22.5079996 271.303578,22.58 C271.303578,22.6280002 271.14158,22.8379981 270.817578,23.21 C270.493577,23.5820019 270.073581,23.9839978 269.557578,24.416 C269.041576,24.8480022 268.453581,25.2439982 267.793578,25.604 C267.133575,25.9640018 266.467581,26.144 265.795578,26.144 C265.243575,26.144 264.715581,25.9700017 264.211578,25.622 C263.707576,25.2739983 263.455578,24.800003 263.455578,24.2 C263.455578,24.007999 263.539577,23.6780023 263.707578,23.21 C263.875579,22.7419977 264.091577,22.1960031 264.355578,21.572 C264.619579,20.9479969 264.901577,20.2880035 265.201578,19.592 C265.50158,18.8959965 265.783577,18.2240032 266.047578,17.576 C266.311579,16.9279968 266.527577,16.3460026 266.695578,15.83 C266.863579,15.3139974 266.947578,14.9240013 266.947578,14.66 C266.947578,14.3239983 266.827579,14.0420011 266.587578,13.814 C266.347577,13.5859989 266.05958,13.472 265.723578,13.472 C265.075575,13.472 264.433581,13.7059977 263.797578,14.174 C263.161575,14.6420023 262.555581,15.2539962 261.979578,16.01 C261.403575,16.7660038 260.857581,17.6119953 260.341578,18.548 C259.825576,19.4840047 259.35758,20.4139954 258.937578,21.338 C258.517576,22.2620046 258.15158,23.1379959 257.839578,23.966 C257.527577,24.7940041 257.287579,25.4719974 257.119578,26 L254.599578,26 C254.743579,25.3759969 255.013576,24.5480052 255.409578,23.516 C255.80558,22.4839948 256.213576,21.4100056 256.633578,20.294 C257.05358,19.1779944 257.425577,18.122005 257.749578,17.126 C258.07358,16.129995 258.235578,15.3680026 258.235578,14.84 C258.235578,13.9279954 257.767583,13.472 256.831578,13.472 C256.255575,13.472 255.661581,13.7239975 255.049578,14.228 C254.437575,14.7320025 253.843581,15.379996 253.267578,16.172 C252.691575,16.964004 252.145581,17.8399952 251.629578,18.8 C251.113576,19.7600048 250.64558,20.7079953 250.225578,21.644 C249.805576,22.5800047 249.45158,23.4379961 249.163578,24.218 C248.875577,24.9980039 248.683579,25.591998 248.587578,26 L246.247578,26 L250.675578,12.464 Z M291.727578,0.368 C291.583577,0.77600204 291.36758,1.3999958 291.079578,2.24 C290.791577,3.0800042 290.44958,4.05799442 290.053578,5.174 C289.657576,6.29000558 289.23158,7.48999358 288.775578,8.774 C288.319576,10.0580064 287.86358,11.3539935 287.407578,12.662 C286.951576,13.9700065 286.50758,15.2359939 286.075578,16.46 C285.643576,17.6840061 285.26558,18.799995 284.941578,19.808 C284.617577,20.816005 284.359579,21.6619966 284.167578,22.346 C283.975577,23.0300034 283.879578,23.4799989 283.879578,23.696 C283.879578,23.9120011 283.939578,24.0859993 284.059578,24.218 C284.179579,24.3500007 284.329577,24.4519996 284.509578,24.524 C284.689579,24.5960004 284.881577,24.6439999 285.085578,24.668 C285.289579,24.6920001 285.463577,24.704 285.607578,24.704 C286.03958,24.704 286.471576,24.602001 286.903578,24.398 C287.33558,24.193999 287.725576,23.9720012 288.073578,23.732 C288.42158,23.4919988 288.709577,23.270001 288.937578,23.066 C289.165579,22.861999 289.291578,22.76 289.315578,22.76 C289.435579,22.76 289.495578,22.8199994 289.495578,22.94 C289.495578,23.0120004 289.29158,23.2399981 288.883578,23.624 C288.475576,24.0080019 287.965581,24.403998 287.353578,24.812 C286.741575,25.220002 286.093582,25.5919983 285.409578,25.928 C284.725575,26.2640017 284.095581,26.432 283.519578,26.432 C282.919575,26.432 282.361581,26.2400019 281.845578,25.856 C281.329576,25.4719981 281.071578,24.9560032 281.071578,24.308 C281.071578,24.1879994 281.185577,23.7740035 281.413578,23.066 C281.641579,22.3579965 281.947576,21.4400056 282.331578,20.312 C282.71558,19.1839944 283.171575,17.8700075 283.699578,16.37 C284.227581,14.8699925 284.785575,13.2560086 285.373578,11.528 C285.961581,9.79999136 286.567575,7.98800948 287.191578,6.092 C287.815581,4.19599052 288.427575,2.2880096 289.027578,0.368 L291.727578,0.368 Z M292.561578,23.192 C292.561578,23.6480023 292.717577,24.0139986 293.029578,24.29 C293.34158,24.5660014 293.713576,24.704 294.145578,24.704 C294.697581,24.704 295.237575,24.5360017 295.765578,24.2 C296.293581,23.8639983 296.791576,23.4500025 297.259578,22.958 C297.72758,22.4659975 298.141576,21.9380028 298.501578,21.374 C298.86158,20.8099972 299.137577,20.3120022 299.329578,19.88 C299.401578,19.687999 299.539577,19.3760022 299.743578,18.944 C299.947579,18.5119978 300.145577,18.0620023 300.337578,17.594 C300.529579,17.1259977 300.703577,16.688002 300.859578,16.28 C301.015579,15.871998 301.093578,15.6080006 301.093578,15.488 C301.093578,15.1999986 301.003579,14.9300013 300.823578,14.678 C300.643577,14.4259987 300.421579,14.204001 300.157578,14.012 C299.893577,13.819999 299.61158,13.6700005 299.311578,13.562 C299.011577,13.4539995 298.741579,13.4 298.501578,13.4 C298.189577,13.4 297.931579,13.4239998 297.727578,13.472 C297.523577,13.5200002 297.349579,13.5979995 297.205578,13.706 C297.061577,13.8140005 296.929579,13.9519992 296.809578,14.12 C296.689578,14.2880008 296.533579,14.4919988 296.341578,14.732 C295.933576,15.3080029 295.50758,15.9319966 295.063578,16.604 C294.619576,17.2760034 294.21158,17.9839963 293.839578,18.728 C293.467576,19.4720037 293.161579,20.2219962 292.921578,20.978 C292.681577,21.7340038 292.561578,22.4719964 292.561578,23.192 Z M304.801578,12.248 C304.633577,12.5600016 304.417579,13.0519966 304.153578,13.724 C303.889577,14.3960034 303.60158,15.1519958 303.289578,15.992 C302.977577,16.8320042 302.66558,17.6899956 302.353578,18.566 C302.041577,19.4420044 301.753579,20.2579962 301.489578,21.014 C301.225577,21.7700038 301.015579,22.4119974 300.859578,22.94 C300.703577,23.4680026 300.625578,23.7919994 300.625578,23.912 C300.625578,24.2720018 300.793576,24.5299992 301.129578,24.686 C301.46558,24.8420008 301.789577,24.92 302.101578,24.92 C302.46158,24.92 302.809576,24.818001 303.145578,24.614 C303.48158,24.409999 303.793577,24.1880012 304.081578,23.948 C304.36958,23.7079988 304.621577,23.486001 304.837578,23.282 C305.053579,23.077999 305.221578,22.976 305.341578,22.976 C305.485579,22.976 305.557578,23.0239995 305.557578,23.12 C305.557578,23.1920004 305.39558,23.4079982 305.071578,23.768 C304.747577,24.1280018 304.315581,24.505998 303.775578,24.902 C303.235575,25.298002 302.617582,25.6519984 301.921578,25.964 C301.225575,26.2760016 300.505582,26.432 299.761578,26.432 C299.329576,26.432 298.873581,26.3060013 298.393578,26.054 C297.913576,25.8019987 297.673578,25.4120026 297.673578,24.884 C297.673578,24.6679989 297.745577,24.3740019 297.889578,24.002 C298.033579,23.6299981 298.201577,23.2520019 298.393578,22.868 C298.585579,22.4839981 298.777577,22.1060019 298.969578,21.734 C299.161579,21.3619981 299.305578,21.0680011 299.401578,20.852 L299.329578,20.78 C298.993576,21.3080026 298.543581,21.9019967 297.979578,22.562 C297.415575,23.2220033 296.797581,23.8399971 296.125578,24.416 C295.453575,24.9920029 294.751582,25.4719981 294.019578,25.856 C293.287574,26.2400019 292.585581,26.432 291.913578,26.432 C291.505576,26.432 291.16358,26.3420009 290.887578,26.162 C290.611577,25.9819991 290.389579,25.7540014 290.221578,25.478 C290.053577,25.2019986 289.933578,24.8900017 289.861578,24.542 C289.789578,24.1939983 289.753578,23.8520017 289.753578,23.516 C289.753578,22.6279956 289.945576,21.7280046 290.329578,20.816 C290.71358,19.9039954 291.211575,19.0220043 291.823578,18.17 C292.435581,17.3179957 293.131574,16.5200037 293.911578,15.776 C294.691582,15.0319963 295.465574,14.3840028 296.233578,13.832 C297.001582,13.2799972 297.739575,12.8420016 298.447578,12.518 C299.155582,12.1939984 299.749576,12.032 300.229578,12.032 C300.63758,12.032 300.991577,12.1639987 301.291578,12.428 C301.59158,12.6920013 301.801578,13.0159981 301.921578,13.4 C302.137579,12.991998 302.305578,12.6080018 302.425578,12.248 L304.801578,12.248 Z M318.127578,13.328 L313.483578,13.328 C313.339577,13.8800028 313.08758,14.6719948 312.727578,15.704 C312.367576,16.7360052 312.00158,17.7979945 311.629578,18.89 C311.257576,19.9820055 310.93358,20.9839954 310.657578,21.896 C310.381577,22.8080046 310.243578,23.4199984 310.243578,23.732 C310.243578,24.5720042 310.639574,24.992 311.431578,24.992 C311.86358,24.992 312.271576,24.896001 312.655578,24.704 C313.03958,24.511999 313.387577,24.3080011 313.699578,24.092 C314.01158,23.8759989 314.269577,23.672001 314.473578,23.48 C314.677579,23.287999 314.791578,23.192 314.815578,23.192 C314.959579,23.192 315.031578,23.2639993 315.031578,23.408 C315.031578,23.5040005 314.85158,23.7199983 314.491578,24.056 C314.131576,24.3920017 313.681581,24.7339983 313.141578,25.082 C312.601575,25.4300017 312.019581,25.7419986 311.395578,26.018 C310.771575,26.2940014 310.207581,26.432 309.703578,26.432 C309.079575,26.432 308.53358,26.2580017 308.065578,25.91 C307.597576,25.5619983 307.363578,25.0520034 307.363578,24.38 C307.363578,24.3319998 307.447577,24.0320028 307.615578,23.48 C307.783579,22.9279972 308.017577,22.2140044 308.317578,21.338 C308.61758,20.4619956 308.953576,19.4540057 309.325578,18.314 C309.69758,17.1739943 310.093576,15.9860062 310.513578,14.75 C310.93358,13.5139938 311.353576,12.2600064 311.773578,10.988 C312.19358,9.71599364 312.595576,8.50400576 312.979578,7.352 L315.751578,6.668 L313.771578,12.464 L318.343578,12.464 L318.127578,13.328 Z M326.161578,14.3 C326.161578,13.9639983 326.053579,13.7420005 325.837578,13.634 C325.621577,13.5259995 325.34558,13.472 325.009578,13.472 C324.553576,13.472 324.10958,13.669998 323.677578,14.066 C323.245576,14.462002 322.84958,14.9299973 322.489578,15.47 C322.129576,16.0100027 321.829579,16.5679971 321.589578,17.144 C321.349577,17.7200029 321.169579,18.1879982 321.049578,18.548 C321.48158,18.4759996 321.991575,18.3080013 322.579578,18.044 C323.167581,17.7799987 323.725575,17.4560019 324.253578,17.072 C324.781581,16.6879981 325.231576,16.2560024 325.603578,15.776 C325.97558,15.2959976 326.161578,14.8040025 326.161578,14.3 Z M320.113578,22.04 C320.113578,22.8800042 320.311576,23.5579974 320.707578,24.074 C321.10358,24.5900026 321.757574,24.848 322.669578,24.848 C323.197581,24.848 323.671576,24.7700008 324.091578,24.614 C324.51158,24.4579992 324.901576,24.2600012 325.261578,24.02 C325.62158,23.7799988 325.957577,23.5160014 326.269578,23.228 C326.58158,22.9399986 326.881577,22.6760012 327.169578,22.436 C327.289579,22.3399995 327.385578,22.2440005 327.457578,22.148 C327.529578,22.0519995 327.589578,22.004 327.637578,22.004 C327.805579,22.004 327.889578,22.0519995 327.889578,22.148 C327.889578,22.2680006 327.67358,22.5619977 327.241578,23.03 C326.809576,23.4980023 326.245582,23.9839975 325.549578,24.488 C324.853575,24.9920025 324.067583,25.441998 323.191578,25.838 C322.315574,26.234002 321.421583,26.432 320.509578,26.432 C319.501573,26.432 318.703581,26.1620027 318.115578,25.622 C317.527575,25.0819973 317.233578,24.308005 317.233578,23.3 C317.233578,22.5319962 317.389577,21.7160043 317.701578,20.852 C318.01358,19.9879957 318.427576,19.1420041 318.943578,18.314 C319.459581,17.4859959 320.053575,16.6940038 320.725578,15.938 C321.397581,15.1819962 322.099574,14.5100029 322.831578,13.922 C323.563582,13.3339971 324.295574,12.8720017 325.027578,12.536 C325.759582,12.1999983 326.449575,12.032 327.097578,12.032 C328.249584,12.032 328.825578,12.6079942 328.825578,13.76 C328.825578,14.552004 328.519581,15.2599969 327.907578,15.884 C327.295575,16.5080031 326.563582,17.0479977 325.711578,17.504 C324.859574,17.9600023 323.977583,18.3319986 323.065578,18.62 C322.153574,18.9080014 321.397581,19.1239993 320.797578,19.268 C320.605577,19.6280018 320.443579,20.0839972 320.311578,20.636 C320.179577,21.1880028 320.113578,21.6559981 320.113578,22.04 Z M334.195578,12.464 L336.859578,12.464 L334.879578,17.684 L334.951578,17.756 C335.23958,17.2519975 335.575576,16.6760032 335.959578,16.028 C336.34358,15.3799968 336.781576,14.756003 337.273578,14.156 C337.765581,13.555997 338.299575,13.052002 338.875578,12.644 C339.451581,12.235998 340.075575,12.032 340.747578,12.032 C341.419581,12.032 341.965576,12.229998 342.385578,12.626 C342.80558,13.022002 343.015578,13.5679965 343.015578,14.264 C343.015578,14.5040012 342.985578,14.7679986 342.925578,15.056 C342.865578,15.3440014 342.763579,15.6019989 342.619578,15.83 C342.475577,16.0580011 342.295579,16.2499992 342.079578,16.406 C341.863577,16.5620008 341.59958,16.64 341.287578,16.64 C340.879576,16.64 340.549579,16.5200012 340.297578,16.28 C340.045577,16.0399988 339.919578,15.716002 339.919578,15.308 C339.919578,15.0919989 339.961578,14.888001 340.045578,14.696 C340.129579,14.503999 340.231578,14.312001 340.351578,14.12 C340.183577,13.9519992 339.979579,13.8500002 339.739578,13.814 C339.499577,13.7779998 339.271579,13.76 339.055578,13.76 C338.551576,13.76 338.047581,14.0059975 337.543578,14.498 C337.039576,14.9900025 336.55358,15.6199962 336.085578,16.388 C335.617576,17.1560038 335.17958,18.0139953 334.771578,18.962 C334.363576,19.9100047 333.98558,20.8399954 333.637578,21.752 C333.289576,22.6640046 332.995579,23.4979962 332.755578,24.254 C332.515577,25.0100038 332.335579,25.591998 332.215578,26 L329.767578,26 L334.195578,12.464 Z" id="[-Ephemera-]-from-la" fill="#000000"></path>
    </g>
</svg>