<svg width="148px" height="20px" viewBox="0 0 148 20" version="1.1" xmlns="http://www.w3.org/2000/svg" xmlns:xlink="http://www.w3.org/1999/xlink">
    <!-- Generator: Sketch 47.1 (45422) - http://www.bohemiancoding.com/sketch -->
    <desc>Created with Sketch.</desc>
    <defs></defs>
    <g id="Recordings" stroke="none" stroke-width="1" fill="none" fill-rule="evenodd">
        <g id="Global_assets" transform="translate(-34.000000, -310.000000)" fill="#000000">
            <path d="M39.2558594,329.667969 L34.6074219,329.667969 L34.6074219,311.757812 L39.2558594,311.757812 L39.2558594,312.207031 L36.9902344,312.207031 C36.5996074,312.207031 36.3294278,312.257486 36.1796875,312.358398 C36.0299472,312.45931 35.9371747,312.602538 35.9013672,312.788086 C35.8655597,312.973634 35.8476562,313.404945 35.8476562,314.082031 L35.8476562,327.333984 C35.8476562,327.99154 35.8639321,328.41634 35.8964844,328.608398 C35.9290366,328.800457 36.018554,328.950195 36.1650391,329.057617 C36.3115242,329.16504 36.5865865,329.21875 36.9902344,329.21875 L39.2558594,329.21875 L39.2558594,329.667969 Z M51.6679688,325.3125 L51.0625,325.3125 L46.4921875,314.785156 C46.4075517,314.596353 46.2740895,314.270836 46.0917969,313.808594 C45.8378894,313.183591 45.5709649,312.763673 45.2910156,312.548828 C45.0110663,312.333983 44.5585969,312.220052 43.9335938,312.207031 L43.9335938,311.757812 L49.6367188,311.757812 L49.6367188,312.207031 C48.9270798,312.207031 48.4501965,312.259114 48.2060547,312.363281 C47.9619128,312.467448 47.8398438,312.666014 47.8398438,312.958984 C47.8398438,313.147787 47.992837,313.590491 48.2988281,314.287109 L52.1074219,323.076172 L55.1640625,315.761719 C55.678388,314.537754 55.9355469,313.740236 55.9355469,313.369141 C55.9355469,312.620439 55.4049532,312.233073 54.34375,312.207031 L54.34375,311.757812 L58.3867187,311.757812 L58.3867187,312.207031 C57.9765604,312.220052 57.6152359,312.366535 57.3027344,312.646484 C56.9902328,312.926434 56.7200532,313.336586 56.4921875,313.876953 L55.6035156,315.957031 L51.6679688,325.3125 Z M59.0507812,312.597656 C59.0507812,312.317707 59.1500641,312.076824 59.3486328,311.875 C59.5472015,311.673176 59.7864569,311.572266 60.0664062,311.572266 C60.3463556,311.572266 60.5839834,311.673176 60.7792969,311.875 C60.9746104,312.076824 61.0722656,312.317707 61.0722656,312.597656 C61.0722656,312.884116 60.9746104,313.128254 60.7792969,313.330078 C60.5839834,313.531902 60.3463556,313.632812 60.0664062,313.632812 C59.7864569,313.632812 59.5472015,313.531902 59.3486328,313.330078 C59.1500641,313.128254 59.0507812,312.884116 59.0507812,312.597656 Z M60.9355469,316.679688 L60.9355469,322.255859 C60.9355469,323.108728 60.9485676,323.645832 60.9746094,323.867188 C61.0006512,324.088543 61.0950513,324.257812 61.2578125,324.375 C61.4205737,324.492188 61.7102844,324.550781 62.1269531,324.550781 L62.3320312,324.550781 L62.3320312,325 L58.0253906,325 L58.0253906,324.550781 L58.3574219,324.550781 C58.8196638,324.550781 59.1207675,324.48405 59.2607422,324.350586 C59.4007168,324.217122 59.4820962,324.057618 59.5048828,323.87207 C59.5276694,323.686523 59.5390625,323.147791 59.5390625,322.255859 L59.5390625,319.833984 C59.5390625,318.89648 59.4951176,318.323569 59.4072266,318.115234 C59.3193355,317.9069 59.2021492,317.776693 59.0556641,317.724609 C58.909179,317.672526 58.6536477,317.646484 58.2890625,317.646484 L58.0253906,317.646484 L58.0253906,317.197266 C59.1842506,317.080078 60.0826791,316.907553 60.7207031,316.679688 L60.9355469,316.679688 Z M70.7011719,319.707031 L65.125,319.707031 C65.0989582,320.091148 65.0859375,320.377603 65.0859375,320.566406 C65.0859375,321.972663 65.3056619,323.028968 65.7451172,323.735352 C66.1845725,324.441735 66.8404904,324.794922 67.7128906,324.794922 C68.8977924,324.794922 69.7376277,324.264328 70.2324219,323.203125 L70.7011719,323.203125 C70.4928375,323.867191 70.0794302,324.386391 69.4609375,324.760742 C68.8424448,325.135093 68.1686234,325.322266 67.4394531,325.322266 C66.7623664,325.322266 66.1227244,325.151369 65.5205078,324.80957 C64.9182913,324.467772 64.4251321,323.984378 64.0410156,323.359375 C63.6568991,322.734372 63.4648438,321.975916 63.4648438,321.083984 C63.4648438,319.820957 63.8359338,318.771163 64.578125,317.93457 C65.3203162,317.097978 66.2480413,316.679688 67.3613281,316.679688 C68.4095104,316.679688 69.2200492,316.998695 69.7929688,317.636719 C70.3658883,318.274743 70.6686196,318.96484 70.7011719,319.707031 Z M68.9921875,319.316406 C69.0117188,319.166666 69.0214844,319.033204 69.0214844,318.916016 C69.0214844,318.343096 68.8538428,317.898765 68.5185547,317.583008 C68.1832666,317.267251 67.7714868,317.109375 67.2832031,317.109375 C66.0983014,317.109375 65.3919282,317.845045 65.1640625,319.316406 L68.9921875,319.316406 Z M81.0625,325.3125 L80.6230469,325.3125 L78.2402344,318.964844 L75.8085938,325.3125 L75.3789062,325.3125 L72.9375,318.964844 C72.6575507,318.242184 72.4492194,317.809246 72.3125,317.666016 C72.1757806,317.522786 71.9023458,317.451172 71.4921875,317.451172 L71.4921875,317.001953 L75.1445312,317.001953 L75.1445312,317.451172 C74.7343729,317.451172 74.4544278,317.488606 74.3046875,317.563477 C74.1549472,317.638347 74.0800781,317.766926 74.0800781,317.949219 C74.0800781,318.079428 74.20703,318.460283 74.4609375,319.091797 L76.0820312,323.378906 L78.5625,317.001953 L78.9433594,317.001953 L81.3457031,323.378906 L83.1035156,318.837891 C83.2923187,318.356117 83.3867188,318.066407 83.3867188,317.96875 C83.3867188,317.649738 83.057946,317.477214 82.4003906,317.451172 L82.4003906,317.001953 L84.9980469,317.001953 L84.9980469,317.451172 C84.6855453,317.457682 84.4397795,317.517903 84.2607422,317.631836 C84.0817048,317.745769 83.9173185,318.0013 83.7675781,318.398438 L83.5527344,318.964844 L81.0625,325.3125 Z M85.8183594,325.253906 L85.8183594,322.626953 L86.1992188,322.626953 C86.6419293,324.143888 87.432937,324.902344 88.5722656,324.902344 C89.0670598,324.902344 89.4365222,324.752606 89.6806641,324.453125 C89.9248059,324.153644 90.046875,323.824872 90.046875,323.466797 C90.046875,323.050128 89.916668,322.708335 89.65625,322.441406 C89.3893216,322.174478 88.8717486,321.852215 88.1035156,321.474609 C87.2962199,321.077472 86.7167986,320.686851 86.3652344,320.302734 C86.0136701,319.925128 85.8378906,319.459638 85.8378906,318.90625 C85.8378906,318.378904 86.0266908,317.875979 86.4042969,317.397461 C86.7819029,316.918943 87.3124966,316.679688 87.9960938,316.679688 C88.6927118,316.679688 89.2688779,316.962888 89.7246094,317.529297 C89.8222661,317.43164 89.949218,317.194012 90.1054688,316.816406 L90.4667969,316.816406 L90.4667969,319.287109 L90.1054688,319.287109 C89.9752598,318.694658 89.7229836,318.185223 89.3486328,317.758789 C88.974282,317.332355 88.5332057,317.119141 88.0253906,317.119141 C87.6347637,317.119141 87.3190116,317.239582 87.078125,317.480469 C86.8372384,317.721355 86.7167969,318.0013 86.7167969,318.320312 C86.7167969,318.671877 86.8502591,318.974608 87.1171875,319.228516 C87.3776055,319.488934 87.8756474,319.785155 88.6113281,320.117188 C89.7181045,320.618492 90.3951811,321.106768 90.6425781,321.582031 C90.8899752,322.063804 91.0136719,322.526039 91.0136719,322.96875 C91.0136719,323.665368 90.784182,324.231769 90.3251953,324.667969 C89.8662086,325.104169 89.2884149,325.322266 88.5917969,325.322266 C87.8561161,325.322266 87.2018258,325.019534 86.6289062,324.414062 C86.4531241,324.609376 86.3098964,324.889321 86.1992188,325.253906 L85.8183594,325.253906 Z M96.2773438,329.667969 L96.2773438,329.21875 L98.5429688,329.21875 C98.9335957,329.21875 99.2037753,329.166667 99.3535156,329.0625 C99.503256,328.958333 99.5960285,328.813477 99.6318359,328.62793 C99.6676434,328.442382 99.6855469,328.011071 99.6855469,327.333984 L99.6855469,314.082031 C99.6855469,313.430986 99.669271,313.009441 99.6367188,312.817383 C99.6041665,312.625325 99.5146492,312.475586 99.3681641,312.368164 C99.221679,312.260742 98.9466166,312.207031 98.5429688,312.207031 L96.2773438,312.207031 L96.2773438,311.757812 L100.925781,311.757812 L100.925781,329.667969 L96.2773438,329.667969 Z M108.892734,317.96 L108.952734,317.48 L110.732734,317.48 C110.799401,317.186665 110.916067,316.820002 111.082734,316.38 C111.249402,315.939998 111.452733,315.470003 111.692734,314.97 C111.932736,314.469997 112.202733,313.970003 112.502734,313.47 C112.802736,312.969997 113.119399,312.520002 113.452734,312.12 C113.786069,311.719998 114.126066,311.393335 114.472734,311.14 C114.819403,310.886665 115.159399,310.76 115.492734,310.76 C115.639402,310.76 115.762734,310.796666 115.862734,310.87 C115.962735,310.943334 116.042734,311.036666 116.102734,311.15 C116.162735,311.263334 116.202734,311.383333 116.222734,311.51 C116.242734,311.636667 116.252734,311.759999 116.252734,311.88 C116.252734,312.040001 116.199402,312.233332 116.092734,312.46 C115.986067,312.686668 115.859402,312.919999 115.712734,313.16 C115.566067,313.400001 115.412735,313.626666 115.252734,313.84 C115.092734,314.053334 114.959402,314.213333 114.852734,314.32 L114.732734,314.3 C114.786068,313.993332 114.846067,313.690001 114.912734,313.39 C114.979401,313.089998 115.012734,312.786668 115.012734,312.48 C115.012734,312.319999 114.979401,312.153334 114.912734,311.98 C114.846067,311.806666 114.726069,311.72 114.552734,311.72 C114.312733,311.72 114.099402,311.843332 113.912734,312.09 C113.726067,312.336668 113.556068,312.649998 113.402734,313.03 C113.2494,313.410002 113.116068,313.833331 113.002734,314.3 C112.8894,314.766669 112.786068,315.213331 112.692734,315.64 C112.599401,316.066669 112.516068,316.446665 112.442734,316.78 C112.369401,317.113335 112.299401,317.346666 112.232734,317.48 L114.132734,317.48 L114.032734,317.96 L112.112734,317.96 C111.992734,318.373335 111.832735,318.939996 111.632734,319.66 C111.432733,320.380004 111.189402,321.159996 110.902734,322 C110.616066,322.840004 110.296069,323.689996 109.942734,324.55 C109.589399,325.410004 109.199403,326.189997 108.772734,326.89 C108.346066,327.590004 107.892737,328.163331 107.412734,328.61 C106.932732,329.056669 106.42607,329.28 105.892734,329.28 C105.6394,329.28 105.426069,329.216667 105.252734,329.09 C105.0794,328.963333 104.992734,328.773335 104.992734,328.52 C104.992734,328.333332 105.0594,328.160001 105.192734,328 C105.326068,327.839999 105.492733,327.76 105.692734,327.76 C105.879402,327.76 106.022734,327.806666 106.122734,327.9 C106.222735,327.993334 106.302734,328.093333 106.362734,328.2 C106.422735,328.306667 106.476067,328.406666 106.522734,328.5 C106.569401,328.593334 106.632734,328.64 106.712734,328.64 C106.912735,328.64 107.082734,328.583334 107.222734,328.47 C107.362735,328.356666 107.482734,328.213334 107.582734,328.04 C107.682735,327.866666 107.769401,327.683334 107.842734,327.49 C107.916068,327.296666 107.986067,327.120001 108.052734,326.96 C108.252735,326.453331 108.466067,325.813337 108.692734,325.04 C108.919402,324.266663 109.146067,323.460004 109.372734,322.62 C109.599402,321.779996 109.816067,320.946671 110.022734,320.12 C110.229402,319.293329 110.4194,318.573336 110.592734,317.96 L108.892734,317.96 Z M116.292734,317.48 L117.772734,317.48 L116.672734,320.38 L116.712734,320.42 C116.872735,320.139999 117.0594,319.820002 117.272734,319.46 C117.486069,319.099998 117.7294,318.753335 118.002734,318.42 C118.276069,318.086665 118.572733,317.806668 118.892734,317.58 C119.212736,317.353332 119.559399,317.24 119.932734,317.24 C120.30607,317.24 120.6094,317.349999 120.842734,317.57 C121.076069,317.790001 121.192734,318.093331 121.192734,318.48 C121.192734,318.613334 121.176068,318.759999 121.142734,318.92 C121.109401,319.080001 121.052735,319.223333 120.972734,319.35 C120.892734,319.476667 120.792735,319.583333 120.672734,319.67 C120.552734,319.756667 120.406069,319.8 120.232734,319.8 C120.006067,319.8 119.822735,319.733334 119.682734,319.6 C119.542734,319.466666 119.472734,319.286668 119.472734,319.06 C119.472734,318.939999 119.496067,318.826667 119.542734,318.72 C119.589401,318.613333 119.646067,318.506667 119.712734,318.4 C119.619401,318.306666 119.506068,318.25 119.372734,318.23 C119.2394,318.21 119.112735,318.2 118.992734,318.2 C118.712733,318.2 118.432736,318.336665 118.152734,318.61 C117.872733,318.883335 117.602736,319.233331 117.342734,319.66 C117.082733,320.086669 116.839402,320.563331 116.612734,321.09 C116.386067,321.616669 116.176069,322.133331 115.982734,322.64 C115.7894,323.146669 115.626068,323.609998 115.492734,324.03 C115.3594,324.450002 115.259401,324.773332 115.192734,325 L113.832734,325 L116.292734,317.48 Z M128.072734,319.08 C128.072734,319.520002 127.996068,319.979998 127.842734,320.46 C127.6894,320.940002 127.476069,321.409998 127.202734,321.87 C126.9294,322.330002 126.612736,322.763331 126.252734,323.17 C125.892733,323.576669 125.50607,323.933332 125.092734,324.24 C124.679399,324.546668 124.249403,324.789999 123.802734,324.97 C123.356065,325.150001 122.919403,325.24 122.492734,325.24 C122.146066,325.24 121.862735,325.193334 121.642734,325.1 C121.422733,325.006666 121.246068,324.880001 121.112734,324.72 C120.9794,324.559999 120.889401,324.366668 120.842734,324.14 C120.796067,323.913332 120.772734,323.666668 120.772734,323.4 C120.772734,322.959998 120.862733,322.500002 121.042734,322.02 C121.222735,321.539998 121.462733,321.070002 121.762734,320.61 C122.062736,320.149998 122.406066,319.716669 122.792734,319.31 C123.179403,318.903331 123.579399,318.546668 123.992734,318.24 C124.40607,317.933332 124.819399,317.690001 125.232734,317.51 C125.64607,317.329999 126.019399,317.24 126.352734,317.24 C126.699403,317.24 126.982733,317.286666 127.202734,317.38 C127.422735,317.473334 127.5994,317.599999 127.732734,317.76 C127.866068,317.920001 127.956067,318.113332 128.002734,318.34 C128.049401,318.566668 128.072734,318.813332 128.072734,319.08 Z M125.392734,317.88 C125.086066,317.88 124.796069,317.989999 124.522734,318.21 C124.2494,318.430001 123.999402,318.716665 123.772734,319.07 C123.546067,319.423335 123.346069,319.816665 123.172734,320.25 C122.9994,320.683335 122.849402,321.113331 122.722734,321.54 C122.596067,321.966669 122.499401,322.363332 122.432734,322.73 C122.366067,323.096669 122.332734,323.393332 122.332734,323.62 C122.332734,324.380004 122.706064,324.76 123.452734,324.76 C123.759403,324.76 124.0494,324.650001 124.322734,324.43 C124.596069,324.209999 124.846067,323.923335 125.072734,323.57 C125.299402,323.216665 125.4994,322.823335 125.672734,322.39 C125.846069,321.956664 125.996067,321.526669 126.122734,321.1 C126.249402,320.673331 126.346067,320.276669 126.412734,319.91 C126.479401,319.543332 126.512734,319.246668 126.512734,319.02 C126.512734,318.259996 126.139405,317.88 125.392734,317.88 Z M131.112734,317.48 L132.592734,317.48 L131.292734,320.98 L131.332734,321.02 C131.599402,320.606665 131.876066,320.176669 132.162734,319.73 C132.449402,319.283331 132.766066,318.876668 133.112734,318.51 C133.459403,318.143331 133.852732,317.840001 134.292734,317.6 C134.732737,317.359999 135.232732,317.24 135.792734,317.24 C136.126069,317.24 136.3894,317.346666 136.582734,317.56 C136.776069,317.773334 136.872734,318.046665 136.872734,318.38 C136.872734,318.526667 136.826068,318.746665 136.732734,319.04 C136.639401,319.333335 136.529402,319.643332 136.402734,319.97 C136.276067,320.296668 136.149402,320.613332 136.022734,320.92 C135.896067,321.226668 135.806068,321.459999 135.752734,321.62 L135.792734,321.66 C136.072736,321.206664 136.3594,320.720003 136.652734,320.2 C136.946069,319.679997 137.272733,319.200002 137.632734,318.76 C137.992736,318.319998 138.406065,317.956668 138.872734,317.67 C139.339403,317.383332 139.886065,317.24 140.512734,317.24 C140.819403,317.24 141.096066,317.346666 141.342734,317.56 C141.589402,317.773334 141.712734,318.046665 141.712734,318.38 C141.712734,318.526667 141.666068,318.746665 141.572734,319.04 C141.479401,319.333335 141.359402,319.656665 141.212734,320.01 C141.066067,320.363335 140.912735,320.733331 140.752734,321.12 C140.592734,321.506669 140.439402,321.866665 140.292734,322.2 C140.146067,322.533335 140.026068,322.826665 139.932734,323.08 C139.839401,323.333335 139.792734,323.506666 139.792734,323.6 C139.792734,323.880001 139.856067,324.063333 139.982734,324.15 C140.109402,324.236667 140.2994,324.28 140.552734,324.28 C140.752735,324.28 140.952733,324.213334 141.152734,324.08 C141.352735,323.946666 141.542733,323.796668 141.722734,323.63 C141.902735,323.463332 142.056067,323.313334 142.182734,323.18 C142.309402,323.046666 142.392734,322.98 142.432734,322.98 C142.459401,322.98 142.489401,322.99 142.522734,323.01 C142.556068,323.03 142.572734,323.06 142.572734,323.1 C142.572734,323.126667 142.482735,323.243332 142.302734,323.45 C142.122733,323.656668 141.889402,323.879999 141.602734,324.12 C141.316066,324.360001 140.989403,324.579999 140.622734,324.78 C140.256066,324.980001 139.88607,325.08 139.512734,325.08 C139.206066,325.08 138.912736,324.983334 138.632734,324.79 C138.352733,324.596666 138.212734,324.333335 138.212734,324 C138.212734,323.893333 138.259401,323.710001 138.352734,323.45 C138.446068,323.189999 138.566067,322.886668 138.712734,322.54 C138.859402,322.193332 139.016067,321.826669 139.182734,321.44 C139.349402,321.053331 139.506067,320.680002 139.652734,320.32 C139.799402,319.959998 139.919401,319.636668 140.012734,319.35 C140.106068,319.063332 140.152734,318.846667 140.152734,318.7 C140.152734,318.513332 140.086068,318.356667 139.952734,318.23 C139.8194,318.103333 139.659402,318.04 139.472734,318.04 C139.112733,318.04 138.756069,318.169999 138.402734,318.43 C138.049399,318.690001 137.712736,319.029998 137.392734,319.45 C137.072733,319.870002 136.769402,320.339997 136.482734,320.86 C136.196066,321.380003 135.936069,321.896664 135.702734,322.41 C135.4694,322.923336 135.266069,323.409998 135.092734,323.87 C134.9194,324.330002 134.786068,324.706665 134.692734,325 L133.292734,325 C133.372735,324.653332 133.522733,324.193336 133.742734,323.62 C133.962735,323.046664 134.1894,322.450003 134.422734,321.83 C134.656069,321.209997 134.862733,320.623336 135.042734,320.07 C135.222735,319.516664 135.312734,319.093335 135.312734,318.8 C135.312734,318.293331 135.052737,318.04 134.532734,318.04 C134.212733,318.04 133.882736,318.179999 133.542734,318.46 C133.202733,318.740001 132.872736,319.099998 132.552734,319.54 C132.232733,319.980002 131.929402,320.466664 131.642734,321 C131.356066,321.533336 131.096069,322.059997 130.862734,322.58 C130.6294,323.100003 130.432735,323.576664 130.272734,324.01 C130.112734,324.443335 130.006068,324.773332 129.952734,325 L128.652734,325 L131.112734,317.48 Z M153.752734,310.76 C153.672734,310.986668 153.552735,311.333331 153.392734,311.8 C153.232734,312.266669 153.042735,312.809997 152.822734,313.43 C152.602733,314.050003 152.366069,314.716663 152.112734,315.43 C151.8594,316.143337 151.606069,316.86333 151.352734,317.59 C151.0994,318.31667 150.852736,319.019997 150.612734,319.7 C150.372733,320.380003 150.162735,320.999997 149.982734,321.56 C149.802733,322.120003 149.659402,322.589998 149.552734,322.97 C149.446067,323.350002 149.392734,323.599999 149.392734,323.72 C149.392734,323.840001 149.426067,323.936666 149.492734,324.01 C149.559401,324.083334 149.642734,324.14 149.742734,324.18 C149.842735,324.22 149.9494,324.246667 150.062734,324.26 C150.176068,324.273333 150.272734,324.28 150.352734,324.28 C150.592736,324.28 150.832733,324.223334 151.072734,324.11 C151.312736,323.996666 151.5294,323.873334 151.722734,323.74 C151.916069,323.606666 152.076067,323.483334 152.202734,323.37 C152.329402,323.256666 152.399401,323.2 152.412734,323.2 C152.479401,323.2 152.512734,323.233333 152.512734,323.3 C152.512734,323.34 152.399402,323.466666 152.172734,323.68 C151.946067,323.893334 151.662736,324.113332 151.322734,324.34 C150.982733,324.566668 150.622736,324.773332 150.242734,324.96 C149.862732,325.146668 149.512736,325.24 149.192734,325.24 C148.859399,325.24 148.549402,325.133334 148.262734,324.92 C147.976066,324.706666 147.832734,324.420002 147.832734,324.06 C147.832734,323.993333 147.896067,323.763335 148.022734,323.37 C148.149402,322.976665 148.3194,322.46667 148.532734,321.84 C148.746069,321.21333 148.9994,320.483338 149.292734,319.65 C149.586069,318.816663 149.896066,317.920005 150.222734,316.96 C150.549403,315.999995 150.886066,314.993339 151.232734,313.94 C151.579403,312.886661 151.919399,311.826672 152.252734,310.76 L153.752734,310.76 Z M154.132734,323.44 C154.132734,323.693335 154.2194,323.896666 154.392734,324.05 C154.566069,324.203334 154.772733,324.28 155.012734,324.28 C155.319403,324.28 155.6194,324.186668 155.912734,324 C156.206069,323.813332 156.482733,323.583335 156.742734,323.31 C157.002736,323.036665 157.232733,322.743335 157.432734,322.43 C157.632735,322.116665 157.786067,321.840001 157.892734,321.6 C157.932735,321.493333 158.0094,321.320001 158.122734,321.08 C158.236068,320.839999 158.346067,320.590001 158.452734,320.33 C158.559402,320.069999 158.656067,319.826668 158.742734,319.6 C158.829401,319.373332 158.872734,319.226667 158.872734,319.16 C158.872734,318.999999 158.822735,318.850001 158.722734,318.71 C158.622734,318.569999 158.499402,318.446667 158.352734,318.34 C158.206067,318.233333 158.049402,318.15 157.882734,318.09 C157.716067,318.03 157.566068,318 157.432734,318 C157.2594,318 157.116068,318.013333 157.002734,318.04 C156.8894,318.066667 156.792735,318.11 156.712734,318.17 C156.632734,318.23 156.559401,318.306666 156.492734,318.4 C156.426067,318.493334 156.339402,318.606666 156.232734,318.74 C156.006067,319.060002 155.769402,319.406665 155.522734,319.78 C155.276066,320.153335 155.049402,320.546665 154.842734,320.96 C154.636067,321.373335 154.466068,321.789998 154.332734,322.21 C154.1994,322.630002 154.132734,323.039998 154.132734,323.44 Z M160.932734,317.36 C160.839401,317.533334 160.719402,317.806665 160.572734,318.18 C160.426067,318.553335 160.266069,318.973331 160.092734,319.44 C159.9194,319.906669 159.746069,320.383331 159.572734,320.87 C159.3994,321.356669 159.239402,321.809998 159.092734,322.23 C158.946067,322.650002 158.829401,323.006665 158.742734,323.3 C158.656067,323.593335 158.612734,323.773333 158.612734,323.84 C158.612734,324.040001 158.706067,324.183333 158.892734,324.27 C159.079402,324.356667 159.2594,324.4 159.432734,324.4 C159.632735,324.4 159.826067,324.343334 160.012734,324.23 C160.199402,324.116666 160.372734,323.993334 160.532734,323.86 C160.692735,323.726666 160.832734,323.603334 160.952734,323.49 C161.072735,323.376666 161.166067,323.32 161.232734,323.32 C161.312735,323.32 161.352734,323.346666 161.352734,323.4 C161.352734,323.44 161.262735,323.559999 161.082734,323.76 C160.902733,323.960001 160.662736,324.169999 160.362734,324.39 C160.062733,324.610001 159.719403,324.806666 159.332734,324.98 C158.946066,325.153334 158.54607,325.24 158.132734,325.24 C157.892733,325.24 157.639402,325.170001 157.372734,325.03 C157.106066,324.889999 156.972734,324.673335 156.972734,324.38 C156.972734,324.259999 157.012734,324.096668 157.092734,323.89 C157.172735,323.683332 157.266067,323.473334 157.372734,323.26 C157.479402,323.046666 157.586067,322.836668 157.692734,322.63 C157.799402,322.423332 157.879401,322.260001 157.932734,322.14 L157.892734,322.1 C157.706067,322.393335 157.456069,322.723331 157.142734,323.09 C156.829399,323.456668 156.48607,323.799998 156.112734,324.12 C155.739399,324.440002 155.349403,324.706666 154.942734,324.92 C154.536066,325.133334 154.14607,325.24 153.772734,325.24 C153.546067,325.24 153.356068,325.19 153.202734,325.09 C153.0494,324.99 152.926068,324.863334 152.832734,324.71 C152.739401,324.556666 152.672735,324.383334 152.632734,324.19 C152.592734,323.996666 152.572734,323.806668 152.572734,323.62 C152.572734,323.126664 152.6794,322.626669 152.892734,322.12 C153.106069,321.613331 153.382733,321.123336 153.722734,320.65 C154.062736,320.176664 154.449399,319.733335 154.882734,319.32 C155.31607,318.906665 155.746066,318.546668 156.172734,318.24 C156.599403,317.933332 157.009399,317.690001 157.402734,317.51 C157.79607,317.329999 158.126066,317.24 158.392734,317.24 C158.619402,317.24 158.816067,317.313333 158.982734,317.46 C159.149402,317.606667 159.266067,317.786666 159.332734,318 C159.452735,317.773332 159.546067,317.560001 159.612734,317.36 L160.932734,317.36 Z M168.252734,317.96 L165.672734,317.96 C165.592734,318.266668 165.452735,318.706664 165.252734,319.28 C165.052733,319.853336 164.849402,320.44333 164.642734,321.05 C164.436067,321.65667 164.256068,322.213331 164.102734,322.72 C163.9494,323.226669 163.872734,323.566666 163.872734,323.74 C163.872734,324.206669 164.092732,324.44 164.532734,324.44 C164.772736,324.44 164.9994,324.386667 165.212734,324.28 C165.426069,324.173333 165.6194,324.060001 165.792734,323.94 C165.966069,323.819999 166.1094,323.706667 166.222734,323.6 C166.336068,323.493333 166.399401,323.44 166.412734,323.44 C166.492735,323.44 166.532734,323.48 166.532734,323.56 C166.532734,323.613334 166.432735,323.733332 166.232734,323.92 C166.032733,324.106668 165.782736,324.296666 165.482734,324.49 C165.182733,324.683334 164.859403,324.856666 164.512734,325.01 C164.166066,325.163334 163.852736,325.24 163.572734,325.24 C163.226066,325.24 162.922736,325.143334 162.662734,324.95 C162.402733,324.756666 162.272734,324.473335 162.272734,324.1 C162.272734,324.073333 162.319401,323.906668 162.412734,323.6 C162.506068,323.293332 162.636067,322.896669 162.802734,322.41 C162.969402,321.923331 163.156067,321.363337 163.362734,320.73 C163.569402,320.096663 163.7894,319.43667 164.022734,318.75 C164.256069,318.06333 164.4894,317.36667 164.722734,316.66 C164.956069,315.95333 165.1794,315.280003 165.392734,314.64 L166.932734,314.26 L165.832734,317.48 L168.372734,317.48 L168.252734,317.96 Z M172.632734,318.5 C172.632734,318.313332 172.572735,318.19 172.452734,318.13 C172.332734,318.07 172.179402,318.04 171.992734,318.04 C171.7394,318.04 171.492736,318.149999 171.252734,318.37 C171.012733,318.590001 170.792735,318.849998 170.592734,319.15 C170.392733,319.450001 170.226068,319.759998 170.092734,320.08 C169.9594,320.400002 169.859401,320.659999 169.792734,320.86 C170.032736,320.82 170.316066,320.726667 170.642734,320.58 C170.969403,320.433333 171.2794,320.253334 171.572734,320.04 C171.866069,319.826666 172.116067,319.586668 172.322734,319.32 C172.529402,319.053332 172.632734,318.780001 172.632734,318.5 Z M169.272734,322.8 C169.272734,323.266669 169.382733,323.643332 169.602734,323.93 C169.822735,324.216668 170.186065,324.36 170.692734,324.36 C170.986069,324.36 171.2494,324.316667 171.482734,324.23 C171.716069,324.143333 171.932733,324.033334 172.132734,323.9 C172.332735,323.766666 172.5194,323.620001 172.692734,323.46 C172.866069,323.299999 173.032734,323.153334 173.192734,323.02 C173.259401,322.966666 173.312734,322.913334 173.352734,322.86 C173.392735,322.806666 173.426068,322.78 173.452734,322.78 C173.546068,322.78 173.592734,322.806666 173.592734,322.86 C173.592734,322.926667 173.472736,323.089999 173.232734,323.35 C172.992733,323.610001 172.679403,323.879999 172.292734,324.16 C171.906066,324.440001 171.469403,324.689999 170.982734,324.91 C170.496065,325.130001 169.999404,325.24 169.492734,325.24 C168.932732,325.24 168.489403,325.090001 168.162734,324.79 C167.836066,324.489999 167.672734,324.060003 167.672734,323.5 C167.672734,323.073331 167.7594,322.620002 167.932734,322.14 C168.106069,321.659998 168.336066,321.190002 168.622734,320.73 C168.909402,320.269998 169.239399,319.830002 169.612734,319.41 C169.98607,318.989998 170.376066,318.616668 170.782734,318.29 C171.189403,317.963332 171.596066,317.706668 172.002734,317.52 C172.409403,317.333332 172.792733,317.24 173.152734,317.24 C173.792738,317.24 174.112734,317.559997 174.112734,318.2 C174.112734,318.640002 173.942736,319.033332 173.602734,319.38 C173.262733,319.726668 172.85607,320.026665 172.382734,320.28 C171.909399,320.533335 171.419404,320.739999 170.912734,320.9 C170.406065,321.060001 169.986069,321.18 169.652734,321.26 C169.546067,321.460001 169.456068,321.713332 169.382734,322.02 C169.309401,322.326668 169.272734,322.586666 169.272734,322.8 Z M177.012734,317.48 L178.492734,317.48 L177.392734,320.38 L177.432734,320.42 C177.592735,320.139999 177.7794,319.820002 177.992734,319.46 C178.206069,319.099998 178.4494,318.753335 178.722734,318.42 C178.996069,318.086665 179.292733,317.806668 179.612734,317.58 C179.932736,317.353332 180.279399,317.24 180.652734,317.24 C181.02607,317.24 181.3294,317.349999 181.562734,317.57 C181.796069,317.790001 181.912734,318.093331 181.912734,318.48 C181.912734,318.613334 181.896068,318.759999 181.862734,318.92 C181.829401,319.080001 181.772735,319.223333 181.692734,319.35 C181.612734,319.476667 181.512735,319.583333 181.392734,319.67 C181.272734,319.756667 181.126069,319.8 180.952734,319.8 C180.726067,319.8 180.542735,319.733334 180.402734,319.6 C180.262734,319.466666 180.192734,319.286668 180.192734,319.06 C180.192734,318.939999 180.216067,318.826667 180.262734,318.72 C180.309401,318.613333 180.366067,318.506667 180.432734,318.4 C180.339401,318.306666 180.226068,318.25 180.092734,318.23 C179.9594,318.21 179.832735,318.2 179.712734,318.2 C179.432733,318.2 179.152736,318.336665 178.872734,318.61 C178.592733,318.883335 178.322736,319.233331 178.062734,319.66 C177.802733,320.086669 177.559402,320.563331 177.332734,321.09 C177.106067,321.616669 176.896069,322.133331 176.702734,322.64 C176.5094,323.146669 176.346068,323.609998 176.212734,324.03 C176.0794,324.450002 175.979401,324.773332 175.912734,325 L174.552734,325 L177.012734,317.48 Z" id="[-Views-]-from-later"></path>
        </g>
    </g>
</svg>