
<svg width="274px" height="194px" viewBox="0 0 274 194" version="1.1" xmlns="http://www.w3.org/2000/svg" xmlns:xlink="http://www.w3.org/1999/xlink">
    <!-- Generator: Sketch 47.1 (45422) - http://www.bohemiancoding.com/sketch -->
    <desc>Created with Sketch.</desc>
    <defs></defs>
    <g id="Page-1" stroke="none" stroke-width="1" fill="none" fill-rule="evenodd">
        <g id="From_later-v0" transform="translate(-375.000000, -136.000000)" fill="#211F1F">
            <g id="FL_logo" transform="translate(375.000000, 136.000000)">
                <g id="Group-19" transform="translate(67.000000, 40.000000)">
                    <path d="M16.8029866,21.0839942 L16.8029866,22.7469902 L10.6802285,22.7469902 L10.6802285,40.5184974 C10.6802285,43.6683245 10.7221652,45.6554637 10.8060386,46.479915 C10.8899119,47.2973198 11.2254055,47.9244666 11.8264982,48.3543087 C12.4206015,48.7911975 13.4829979,49.0025953 15.0136874,49.0025953 L16.5513664,49.0025953 L16.5513664,50.6655912 L0.685315082,50.6655912 L0.685315082,49.0025953 C2.33482526,49.0025953 3.4741056,48.8334771 4.11014554,48.5022872 C4.73919603,48.1640507 5.13060522,47.6496494 5.28437312,46.9661299 C5.44513047,46.2755638 5.52201442,44.126353 5.52201442,40.5184974 L5.52201442,22.7469902 L0.0352962406,22.7469902 L0.0352962406,21.0839942 L5.52201442,21.0839942 L5.52201442,18.4133355 C5.52201442,15.4255801 5.64083507,13.1142977 5.87847636,11.4794881 C6.11611766,9.84467857 6.7940943,8.15349627 7.90541684,6.40594123 C9.00974992,4.6583862 10.4076399,3.31248695 12.0920973,2.38233669 C13.7765548,1.43809324 15.7825269,0.96597152 18.0960348,0.96597152 C20.9127831,0.96597152 23.1703754,1.55788532 24.8688118,2.73466634 C26.5602586,3.91849394 27.4129715,5.12346133 27.4129715,6.34956849 C27.4129715,7.04718119 27.1683408,7.62500181 26.6930582,8.08303034 C26.2107862,8.54105888 25.6516302,8.77359645 25.0086008,8.77359645 C23.7435103,8.77359645 22.5902511,7.78707344 21.5348442,5.80698084 C20.3606166,3.64367682 18.8439059,2.55850151 16.9847123,2.55850151 C15.4819805,2.55850151 14.1609745,3.10108917 13.0286836,4.20035766 C11.8963927,5.29962615 11.2184161,6.66666517 11.0017431,8.30147472 C10.7850702,9.94333087 10.6802285,13.4525341 10.6802285,18.8431777 L10.6802285,21.0839942 L16.8029866,21.0839942 Z" id="Fill-1"></path>
                    <path d="M32.8989908,27.4428397 C33.709767,25.3006754 35.030773,23.5037942 36.8550194,22.0592427 C38.6792658,20.6146911 40.468565,19.8959387 42.208938,19.8959387 C43.7885537,19.8959387 45.0326758,20.3892002 45.9343149,21.3757232 C46.8429433,22.3622462 47.2972576,23.3769556 47.2972576,24.4128047 C47.2972576,25.1104174 47.0666057,25.7093778 46.5983126,26.2167325 C46.1300194,26.7240872 45.5708635,26.9777645 44.8998763,26.9777645 C43.7046803,26.9777645 42.7960518,26.0828472 42.1739908,24.3000592 C41.7476344,23.0950918 41.0976155,22.4961315 40.2379132,22.4961315 C39.2174535,22.4961315 37.9803209,23.2007907 36.5544731,24.6101093 C35.1216358,26.0194279 34.1990285,27.4780726 33.7936404,29.0001367 C33.3882523,30.5151542 33.1785688,32.5938991 33.1785688,35.243418 L33.1785688,40.5213161 C33.1785688,43.6711431 33.2274949,45.6582823 33.3113683,46.4756871 C33.3882523,47.2930918 33.7307353,47.9202386 34.3248386,48.3571274 C34.9259312,48.7869695 35.9883276,49.0054139 37.5190172,49.0054139 L38.5185085,49.0054139 L38.5185085,50.6684098 L22.9390246,50.6684098 L22.9390246,49.0054139 L23.6868958,49.0054139 C25.119733,49.0054139 26.1471822,48.8081093 26.7482748,48.4064535 C27.3633464,48.0118443 27.7267978,47.4481169 27.8456185,46.7293644 C27.9644391,46.0035653 28.0273442,43.9389136 28.0273442,40.5213161 L28.0273442,32.1711035 C28.0273442,29.0001367 27.9854075,27.0059509 27.8945446,26.1955927 C27.8176607,25.3922811 27.4751776,24.7651344 26.8810744,24.321199 C26.2799817,23.8702171 25.2175853,23.6517727 23.6868958,23.6517727 L22.9390246,23.6517727 L22.9390246,22.0240097 C25.1826381,21.7562392 28.118207,21.0515799 31.752721,19.8959387 C32.4446765,21.7985188 32.8290963,24.3141524 32.8989908,27.4428397" id="Fill-3"></path>
                    <path d="M50.6004716,35.8198293 C50.6004716,31.2959167 52.1032033,27.5118963 55.1156563,24.4677681 C58.1281092,21.4165934 61.8255282,19.8945294 66.2218922,19.8945294 C70.6392245,19.8945294 74.3576119,21.42364 77.3630753,24.4818613 C80.3755282,27.5400826 81.87826,31.3170564 81.87826,35.8198293 C81.87826,40.8088171 80.3475704,44.7267227 77.2931808,47.5805928 C74.2318018,50.434463 70.5483617,51.8578747 66.2218922,51.8578747 C61.9024121,51.8578747 58.2119826,50.4062766 55.1715719,47.5030803 C52.1241717,44.6069306 50.6004716,40.7101648 50.6004716,35.8198293 M56.5484935,36.0030407 C56.5484935,41.2527524 57.3942169,44.9310739 59.0926532,47.0380052 C60.7910896,49.1449365 63.1675025,50.1948788 66.2218922,50.1948788 C69.3461763,50.1948788 71.7435576,49.1449365 73.4070467,47.0380052 C75.0635463,44.9310739 75.8952908,41.2527524 75.8952908,36.0030407 C75.8952908,30.8026552 75.0705357,27.0961473 73.4210256,24.8764705 C71.7715154,22.6638404 69.3741341,21.5575253 66.2218922,21.5575253 C63.0906186,21.5575253 60.7002267,22.6567938 59.0367377,24.8623773 C57.3732486,27.0609143 56.5484935,30.7744688 56.5484935,36.0030407" id="Fill-5"></path>
                    <path d="M96.6826138,19.8959387 L97.0390758,19.8959387 C97.7310313,21.5096084 98.0805038,23.5813068 98.0805038,26.1110336 C99.6810878,24.0322887 101.407482,22.4820383 103.259686,21.4461891 C105.11189,20.4173865 107.096894,19.8959387 109.221687,19.8959387 C111.633047,19.8959387 113.590093,20.4455729 115.099814,21.5589346 C116.602546,22.6652497 117.650964,24.321199 118.252056,26.5408758 C120.062324,24.321199 121.928507,22.6652497 123.843616,21.5589346 C125.751736,20.4455729 127.694803,19.8959387 129.679807,19.8959387 C131.944389,19.8959387 133.873477,20.4244331 135.446103,21.4814221 C137.025719,22.5454576 137.976284,23.7433784 138.311777,25.0963242 C138.647271,26.4422235 138.815018,28.6196207 138.815018,31.6285158 L138.815018,40.5213161 C138.815018,43.9600534 138.877923,46.0528915 139.010722,46.8068769 C139.143522,47.5467692 139.527942,48.10345 140.156992,48.4628263 C140.793032,48.8292491 141.96726,49.0054139 143.686664,49.0054139 L143.686664,50.6684098 L129.029788,50.6684098 L129.029788,49.0054139 C130.581446,49.0054139 131.67879,48.8292491 132.314829,48.483966 C132.94388,48.1316364 133.335289,47.6031419 133.475078,46.8914361 C133.621857,46.1867768 133.691751,44.0587057 133.691751,40.5213161 L133.691751,30.656086 C133.691751,28.6619002 133.57992,27.1539294 133.349268,26.1462666 C133.125606,25.1315572 132.531502,24.2648263 131.573948,23.5460738 C130.623383,22.8202747 129.37926,22.4608985 127.848571,22.4608985 C126.296913,22.4608985 124.745255,22.989393 123.179618,24.0463819 C121.613982,25.1104174 120.041355,26.709994 118.468729,28.8521582 L118.468729,40.5213161 C118.468729,43.6711431 118.510666,45.6512357 118.58755,46.4615939 C118.678413,47.2649055 119.006917,47.8920522 119.594031,48.3359876 C120.174155,48.7799229 121.222572,49.0054139 122.732294,49.0054139 L122.732294,50.6684098 L108.54371,50.6684098 L108.54371,49.0054139 C110.144294,49.0054139 111.255617,48.8362957 111.891657,48.4980592 C112.520707,48.1598228 112.919106,47.6454215 113.072874,46.9478088 C113.226642,46.2501961 113.303526,44.1080319 113.303526,40.5213161 L113.303526,32.3190819 C113.303526,29.7188892 113.205673,27.8304023 113.002979,26.6677144 C112.800285,25.49798 112.185214,24.4973638 111.157765,23.6658659 C110.130315,22.8343679 108.851246,22.4256655 107.327546,22.4256655 C105.845783,22.4256655 104.329072,22.9048338 102.791393,23.8702171 C101.253714,24.8356003 99.6810878,26.2731052 98.0805038,28.1968251 L98.0805038,40.5213161 C98.0805038,43.7697954 98.1294299,45.7921676 98.2272822,46.581386 C98.3181451,47.3846976 98.6815965,47.9836579 99.2966681,48.3923603 C99.9257186,48.8010627 101.030052,49.0054139 102.630636,49.0054139 L102.630636,50.6684098 L88.2673161,50.6684098 L88.2673161,49.0054139 C89.8399423,49.0054139 90.9442754,48.8292491 91.5803154,48.483966 C92.2163553,48.1316364 92.6007751,47.6101885 92.7405641,46.9125758 C92.8873425,46.2149631 92.957237,44.0798455 92.957237,40.5213161 L92.957237,31.6707954 C92.957237,28.2954774 92.9083109,26.2308257 92.7964797,25.4768402 C92.6916379,24.7158082 92.3211971,24.1450342 91.6851571,23.7574716 C91.0561066,23.3769556 89.9168263,23.179651 88.2673161,23.179651 L88.2673161,21.516655 C91.6571993,21.1784186 94.4599687,20.6358309 96.6826138,19.8959387" id="Fill-7"></path>
                    <path d="M13.9359142,59.3096467 L13.9359142,98.8269397 C13.9359142,101.976767 13.9778509,103.963906 14.0617243,104.781311 C14.1455977,105.598715 14.4880808,106.232909 15.082184,106.662751 C15.6762872,107.09964 16.7456731,107.311038 18.2693732,107.311038 L19.1290755,107.311038 L19.1290755,108.974033 L3.43776046,108.974033 L3.43776046,107.311038 L4.44424124,107.311038 C5.87707847,107.311038 6.89753816,107.113733 7.5056203,106.719124 C8.11370245,106.317468 8.47715384,105.75374 8.59597449,105.034988 C8.71479514,104.309189 8.77770019,102.244537 8.77770019,98.8269397 L8.77770019,69.569486 C8.77770019,66.4619385 8.50511164,64.5100323 7.9529451,63.6996741 C7.40077856,62.8893159 6.06579362,62.4876601 3.94100085,62.4876601 L3.94100085,60.8246642 C5.40179588,60.8246642 7.10722166,60.655546 9.07824653,60.3243561 C11.0492714,59.9861196 12.4052247,59.6478832 13.1461064,59.3096467 L13.9359142,59.3096467 Z" id="Fill-9"></path>
                    <path d="M54.4230018,103.554499 L55.7440078,103.554499 C55.5343243,107.676756 53.5283522,109.727314 49.7330809,109.727314 C48.104539,109.727314 46.8254697,109.297472 45.8749045,108.430741 C44.9383182,107.56401 44.3232466,106.274484 44.0366792,104.569208 C41.6462873,106.274484 39.465579,107.56401 37.4945541,108.430741 C35.5235292,109.297472 33.7621878,109.727314 32.21053,109.727314 C30.2255262,109.727314 28.5201004,109.149494 27.0872632,107.993852 C25.6544259,106.845258 24.941502,105.3091 24.941502,103.413567 C24.941502,100.933166 26.1436874,98.7628157 28.5410688,96.9095617 C30.9384501,95.0563078 34.2514493,93.25238 38.4800665,91.4907318 L44.0366792,89.2146823 L44.0366792,87.7701308 C44.0366792,85.7266188 43.9038797,84.2468343 43.6382806,83.3307772 C43.3796709,82.4147202 42.6947048,81.5973154 41.5973612,80.8715163 C40.5000175,80.1527638 39.0532014,79.786341 37.2639022,79.786341 C33.6783144,79.786341 31.6863212,80.998355 31.2809331,83.4012432 C30.8965134,85.8605041 29.897022,87.0866112 28.2684802,87.0866112 C26.8146746,87.0866112 26.0877718,86.3889985 26.0877718,84.9937732 C26.0877718,83.6196875 27.0523159,82.139903 28.9883935,80.5685128 C30.9244712,78.990076 33.9299346,78.2008576 38.0117734,78.2008576 C41.0521841,78.2008576 43.4006393,78.6870725 45.0711178,79.6454091 C46.7485858,80.6107924 47.8459294,81.7030143 48.384117,82.9291214 C48.9223047,84.1622752 49.1948932,86.0366689 49.1948932,88.5663957 L49.1948932,100.524464 C49.1948932,103.314915 49.3346822,105.111796 49.6212497,105.901014 C49.9078171,106.697279 50.5298782,107.098935 51.4804434,107.098935 C53.060059,107.098935 54.038582,105.915107 54.4230018,103.554499 L54.4230018,103.554499 Z M44.0366792,90.9129112 L40.1295767,92.5054412 C33.9648819,95.0281214 30.8895239,98.2131814 30.8895239,102.039481 C30.8895239,103.554499 31.2809331,104.780606 32.070741,105.70371 C32.8605488,106.63386 33.8810085,107.098935 35.1530884,107.098935 C36.2714004,107.098935 37.571438,106.718419 39.0532014,105.978527 C40.5349648,105.231588 42.1984539,104.11118 44.0366792,102.617302 L44.0366792,90.9129112 Z" id="Fill-11"></path>
                    <path d="M77.7565813,81.056137 L68.9079378,81.056137 L68.9079378,98.9333432 C68.9079378,101.681514 69.0267584,103.527722 69.2643997,104.479012 C69.502041,105.423255 70.0122708,106.191334 70.7880998,106.769155 C71.5639287,107.346975 72.3956733,107.635885 73.276344,107.635885 C74.9957486,107.635885 76.4914909,106.649362 77.7565813,104.676316 L78.9028511,105.359836 C78.1689589,106.952366 77.0716153,108.150287 75.6247991,108.953598 C74.177983,109.763956 72.717188,110.165612 71.2354246,110.165612 C69.5160199,110.165612 68.0062987,109.651211 66.706261,108.629455 C65.4062234,107.607699 64.5884577,106.409778 64.266943,105.035693 C63.9454283,103.661607 63.784671,101.258719 63.784671,97.8129349 L63.784671,81.056137 L59.5211065,81.056137 L59.5211065,79.3931411 C61.4781525,79.343815 63.2325044,78.512317 64.7841623,76.8986472 C66.3428096,75.2920241 67.3283221,73.0230211 67.761668,70.1127783 L68.9079378,70.1127783 L68.9079378,79.3931411 L77.7565813,79.3931411 L77.7565813,81.056137 Z" id="Fill-13"></path>
                    <path d="M110.152682,89.3971891 L89.6945618,89.3971891 C89.5967095,90.8206008 89.5547728,91.8775897 89.5547728,92.5752024 C89.5547728,97.7826346 90.3585595,101.686447 91.966133,104.300733 C93.5806959,106.907972 95.9850667,108.218639 99.1932242,108.218639 C103.533673,108.218639 106.61602,106.252639 108.433277,102.327687 L110.152682,102.327687 C109.390832,104.786948 107.867132,106.703621 105.60255,108.084753 C103.330979,109.472932 100.863703,110.163498 98.1867434,110.163498 C95.6984993,110.163498 93.3570335,109.536352 91.1413779,108.267965 C88.9397012,107.006625 87.1294337,105.21679 85.7175648,102.905508 C84.3126854,100.594225 83.6067509,97.7896812 83.6067509,94.4918757 C83.6067509,89.8199846 84.9627042,85.9373119 87.6885897,82.8438577 C90.4144751,79.7504034 93.8183372,78.2001529 97.900176,78.2001529 C101.744373,78.2001529 104.721879,79.3839805 106.818714,81.7375426 C108.922538,84.1051978 110.026872,86.6560644 110.152682,89.3971891 L110.152682,89.3971891 Z M103.883145,87.9526375 C103.95304,87.4030033 103.987987,86.9026952 103.987987,86.472853 C103.987987,84.3518285 103.372915,82.7099724 102.142772,81.540238 C100.912629,80.3705036 99.4029077,79.7926829 97.6136085,79.7926829 C93.2661707,79.7926829 90.6730848,82.5126678 89.8413402,87.9526375 L103.883145,87.9526375 Z" id="Fill-15"></path>
                    <path d="M126.99446,85.7491679 C127.805236,83.6070037 129.126242,81.8101225 130.950489,80.3655709 C132.774735,78.9210194 134.564034,78.2022669 136.304407,78.2022669 C137.884023,78.2022669 139.128145,78.6955284 140.029784,79.6820514 C140.938413,80.6685744 141.392727,81.6832838 141.392727,82.719133 C141.392727,83.4167457 141.162075,84.0157061 140.693782,84.5230607 C140.225489,85.0304154 139.666333,85.2840928 138.995346,85.2840928 C137.80015,85.2840928 136.891521,84.3891755 136.26946,82.6063875 C135.843104,81.4014201 135.193085,80.8024597 134.333383,80.8024597 C133.312923,80.8024597 132.07579,81.507119 130.649942,82.9164376 C129.217105,84.3257561 128.294498,85.7844009 127.88911,87.3064649 C127.483722,88.8214824 127.274038,90.9002273 127.274038,93.5497462 L127.274038,98.8276443 C127.274038,101.977471 127.322964,103.964611 127.406838,104.782015 C127.483722,105.59942 127.826205,106.226567 128.420308,106.663456 C129.021401,107.093298 130.083797,107.311742 131.614487,107.311742 L132.613978,107.311742 L132.613978,108.974738 L117.034494,108.974738 L117.034494,107.311742 L117.782365,107.311742 C119.215202,107.311742 120.242652,107.114438 120.843744,106.712782 C121.458816,106.318173 121.822267,105.754445 121.941088,105.035693 C122.059909,104.309894 122.122814,102.245242 122.122814,98.8276443 L122.122814,90.4774317 C122.122814,87.3064649 122.080877,85.3122791 121.990014,84.501921 C121.91313,83.6986094 121.570647,83.0714626 120.976544,82.6275273 C120.375451,82.1765453 119.313055,81.9581009 117.782365,81.9581009 L117.034494,81.9581009 L117.034494,80.330338 C119.278107,80.0625674 122.213676,79.3579082 125.84819,78.2022669 C126.540146,80.104847 126.924566,82.6204807 126.99446,85.7491679" id="Fill-17"></path>
                </g>
                <polygon id="Fill-20" points="0 0 0 194 16 194 16 189.090192 6.38984587 189.090192 6.38984587 4.91676226 16 4.91676226 16 0"></polygon>
                <polygon id="Fill-21" points="258 0 258 4.91676226 267.59855 4.91676226 267.59855 189.090192 258 189.090192 258 194 274 194 274 0"></polygon>
            </g>
        </g>
    </g>
</svg>
